<?xml version="1.0" encoding="iso-8859-1"?>
<!-- Generator: Adobe Illustrator 19.0.1, SVG Export Plug-In . SVG Version: 6.00 Build 0)  -->
<svg version="1.1" id="&#x421;&#x43B;&#x43E;&#x439;_1"
	 xmlns="http://www.w3.org/2000/svg" xmlns:xlink="http://www.w3.org/1999/xlink" x="0px" y="0px" viewBox="0 0 950.928 315.557"
	 style="enable-background:new 0 0 950.928 315.557;" xml:space="preserve">
<g>
	<g>
		<path style="fill:#BEBDB8;" d="M64.024,292.364V210.9c0-0.944,0.766-1.71,1.709-1.71h-1.816c-0.943,0-1.709,0.766-1.709,1.71
			v81.464c0,0.943,0.766,1.709,1.709,1.709h1.816C64.79,294.073,64.024,293.308,64.024,292.364z"/>
		<path style="fill:#A9A8A2;" d="M70.469,292.364V210.9c0-0.944-0.766-1.71-1.709-1.71h-3.026c-0.943,0-1.709,0.766-1.709,1.71
			v81.464c0,0.943,0.766,1.709,1.709,1.709h3.026C69.703,294.073,70.469,293.308,70.469,292.364z"/>
		<path style="fill:none;" d="M76.829,280.298c4.077,4.704,26.771,14.352,66.893,14.352c40.079,0,62.768-9.627,66.88-14.338
			c-16.861,9.71-41.934,14.259-66.88,14.259C118.766,294.57,93.688,290.014,76.829,280.298z"/>
		<path style="fill:#A9A8A2;" d="M205.601,263.216c-16.604-6.118-39.29-9.007-61.878-9.007c-22.59,0-45.272,2.889-61.877,9.007
			c-6.086,2.243-10.763,5.266-14.907,8.396l-0.6,9.607c2.96,2.89,6.496,5.479,10.49,7.78c-0.048-0.056-0.105-0.114-0.148-0.167
			c2.867-3.613,17.305-10.398,42.71-13.229c7.229-0.806,15.341-1.292,24.332-1.292c8.99,0,17.103,0.486,24.331,1.292
			c25.405,2.83,39.843,9.615,42.711,13.229c-0.048,0.059-0.109,0.121-0.162,0.182c3.858-2.221,7.287-4.712,10.185-7.48V271.02
			C216.692,267.993,211.529,265.401,205.601,263.216z"/>
		<path style="fill:#BEBDB8;" d="M143.723,293.743c-26.908,0-45.977-4.34-56.85-8.616c-5.338-2.1-17.573-10.626-20.533-13.516
			v25.183c15.454,11.665,46.515,18.763,77.384,18.763c30.654,0,61.502-7.023,77.064-18.52v-25.111
			c-2.897,2.768-15.149,11.264-20.822,13.437C188.998,289.563,170.136,293.743,143.723,293.743z"/>
		<path style="fill:#D2D2D2;" d="M205.601,263.216c-16.604-6.118-39.29-9.007-61.878-9.007c-22.59,0-45.272,2.889-61.877,9.007
			c-5.688,2.097-10.675,4.559-14.678,7.439c-1.868,1.343-0.829,3.123,0.164,4.053c5.137,4.804,25.068,21.173,76.391,21.173
			c58.727,0,74.167-19.05,77.064-21.818v-1.049v-1.087v-0.906C216.692,267.993,211.529,265.401,205.601,263.216z M143.723,293.743
			c-47.947,0-70.126-16.11-75.66-20.635c-0.274-0.223-0.52-0.675,0.063-1.112c3.7-2.781,8.473-4.851,13.721-6.785
			c16.604-6.12,39.287-9.009,61.877-9.009c22.588,0,45.275,2.889,61.878,9.008c5.612,2.067,10.523,4.504,14.506,7.326
			C216.324,275.771,197.429,293.743,143.723,293.743z"/>
		<path style="fill:#DFE6F0;" d="M73.346,200.38v21.079c0,0,57.681,38.167,135.869,0l1.587-21.079H73.346z"/>
		<path style="fill:#291F1A;" d="M73.346,179.021v19.511c0,0,54.832,39.244,135.869,1.424l1.587-20.936L73.346,179.021z"/>
		<path style="fill:#FFFFFF;" d="M209.215,198.465c-81.037,37.82-135.869-1.424-135.869-1.424v2.346
			c0,0,54.832,39.244,135.869,1.423l1.587-20.934h-0.178L209.215,198.465z"/>
		<path style="fill:#DFE6F0;" d="M73.346,158.085v22.93c0,0,57.111,36.032,135.869-0.284l1.587-22.645H73.346z"/>
		<polygon style="fill:#2A285D;" points="75.555,13.096 68.505,37.598 132.593,61.738 204.799,39.309 210.78,14.527 		"/>
		<path style="fill:#5778BA;" d="M78.972,7.264c0,0,24.567-7.264,61.952-7.264C178.31,0,209.5,9.186,209.5,9.186l-2.564,9.827
			c0,0-77.12,21.149-134.373-1.495L78.972,7.264z"/>
		<path style="fill:#D2D2D2;" d="M218.366,292.364V210.9c0-0.944,0.764-1.71,1.707-1.71h-1.707c-0.944,0-1.709,0.766-1.709,1.71
			v81.464c0,0.943,0.765,1.709,1.709,1.709h1.707C219.13,294.073,218.366,293.308,218.366,292.364z"/>
		<path style="fill:#BEBDB8;" d="M224.917,292.364V210.9c0-0.944-0.766-1.71-1.709-1.71h-3.135c-0.943,0-1.707,0.766-1.707,1.71
			v81.464c0,0.943,0.764,1.709,1.707,1.709h3.135C224.151,294.073,224.917,293.308,224.917,292.364z"/>
		<path style="fill:#313E81;" d="M74.915,160.25v68.332c0,0-15.668,0.569-16.522-10.253c-0.854-10.825-2.137-188.421,5.839-201.666
			C72.207,3.418,82.949,6.35,81.088,9.137c-3.862,5.781-9.253,15.842-5.89,23.051c4.984,10.682,34.465,20.223,60.527,20.223
			c26.063,0,59.247-9.97,63.946-17.375c4.701-7.406,1.14-18.515,8.973-28.768c0,0,15.667,0.427,17.232,25.493
			c1.567,25.064,11.82,176.741,5.413,189.559c-6.409,12.818-22.859,11.963-22.859,11.963l-2.575-72.064
			C205.855,161.218,128.89,186.142,74.915,160.25z"/>
		<g style="opacity:0.5;">
			<path style="fill:#455BA6;" d="M156.863,50.605l3.154,119.905c5.687-0.642,11.057-1.44,15.982-2.297l-5.163-120.43
				C166.372,48.887,161.65,49.848,156.863,50.605z"/>
			<path style="fill:#455BA6;" d="M148.047,171.571l-1.905-119.64c-3.54,0.308-7.037,0.479-10.416,0.479
				c-7.927,0-16.168-0.887-23.942-2.416l-0.076,120.629C124.052,172.212,136.466,172.304,148.047,171.571z"/>
		</g>
		<path style="fill:#2C2D63;" d="M210.392,163.313l-3.88-1.322l-0.618,0.313l2.537,70.978c0,0,1.514,0.077,3.796-0.169
			L210.392,163.313z"/>
		<g>
			<path style="fill:#6089C6;" d="M75.198,32.188c-1.152-2.47-1.276-5.275-0.787-8.127c-1.277,3.981-1.68,8.09-0.067,11.545
				c4.984,10.681,34.465,20.223,60.527,20.223c26.064,0,59.246-9.969,63.947-17.375c1.267-1.994,1.931-4.26,2.382-6.704
				c-0.388,1.158-0.877,2.259-1.528,3.286c-4.699,7.405-37.883,17.375-63.946,17.375C109.663,52.41,80.183,42.869,75.198,32.188z"/>
		</g>
		<g>
			<path style="fill:#455BA6;" d="M231.29,221.318c6.407-12.817,1.624-140.393-4.338-195.128
				c-1.918-17.612-14.896-19.661-18.329-19.896c-0.529-0.035-1.232,0.522-1.405,0.799c-1.301,2.071-1.648,4.174-2.383,6.268
				c7.39,2.246,12.26,5.955,13.209,11.847c3.782,23.487,12.756,169.005,6.361,203.793
				C227.085,227.249,229.555,224.787,231.29,221.318z"/>
			<path style="fill:#455BA6;" d="M82.836,4.559c-3.59,0.199-12.394,1.789-18.604,12.104c-0.265,0.44-0.521,1.069-0.766,1.862
				c2.854-1.726,7.436-3.531,14.735-4.608c1.911-3.542,4.034-6.498,5.25-8.09C84.071,5.016,83.856,4.502,82.836,4.559z"/>
		</g>
		<path style="fill:#313E81;" d="M101.372,30.27c-9.685-1.68-13.861-3.039-13.853-0.7c0.006,1.749,4.585,4.427,12.904,6.643
			c1.614,0.431,5.372,0.753,5.364-1.759C105.778,31.33,102.674,30.495,101.372,30.27z"/>
		<path style="fill:#313E81;" d="M130.849,32.806c-5.502-0.085-10.434-0.362-14.83-0.744c-1.921-0.168-4.896-0.023-5.265,3
			c-0.347,2.842,3.015,3.603,4.637,3.777c5.367,0.577,11.381,0.917,17.972,0.895c25.618-0.087,55.492-3.829,55.475-8.511
			C188.825,27.703,167.41,33.376,130.849,32.806z"/>
		<path style="fill:#2C2D63;" d="M67.364,158.085v69.539c3.883,1.087,7.551,0.958,7.551,0.958V160.25
			c2.424,1.163,4.896,2.22,7.404,3.184v-1.504l-11.108-5.27L67.364,158.085z"/>
		<path style="fill:#201D4A;" d="M61.985,161.467c0,0-0.034-0.044-0.1-0.134c-0.066-0.09-0.161-0.236-0.266-0.448
			c-0.199-0.43-0.524-1.093-0.591-2.283c-0.008-0.296,0.011-0.63,0.032-0.985c0.065-0.343,0.158-0.726,0.279-1.098
			c0.155-0.323,0.333-0.725,0.558-0.988c0.226-0.234,0.486-0.527,0.746-0.686c1.088-0.699,2.203-0.631,3.426-0.534
			c2.406,0.341,5.082,1.754,8,3.267c1.477,0.779,3.051,1.564,4.709,2.291c1.662,0.741,3.395,1.58,5.251,2.236
			c1.85,0.674,3.758,1.494,5.766,2.125c2.01,0.619,4.086,1.259,6.221,1.918c4.307,1.023,8.834,2.213,13.575,2.833
			c4.712,0.958,9.633,1.194,14.611,1.725c2.496,0.12,5.017,0.136,7.544,0.212c1.263,0.03,2.529,0.059,3.797,0.091
			c0.3,0.002,0.672,0.026,0.911,0.012l0.958-0.043l1.916-0.082c2.554-0.078,5.108-0.158,7.654-0.236
			c2.545-0.076,5.027-0.435,7.52-0.635c4.969-0.34,9.866-1.287,14.605-1.974c4.723-0.969,9.304-1.73,13.616-2.848
			c4.326-0.979,8.401-2.129,12.171-3.135c3.783-1.039,7.251-1.992,10.327-2.836c0.397-0.109,0.788-0.215,1.174-0.318
			c0.372-0.08,0.738-0.159,1.101-0.236c0.727-0.146,1.392-0.334,2.125-0.395c1.425-0.187,2.726-0.225,3.946-0.011
			c0.305,0.061,0.602,0.119,0.891,0.176c0.29,0.067,0.588,0.215,0.865,0.324c0.548,0.185,1.11,0.612,1.6,1.027
			c0.254,0.281,0.487,0.557,0.697,0.864c0.186,0.399,0.377,0.764,0.491,1.168c0.088,0.437,0.183,0.856,0.186,1.243
			c-0.004,0.384-0.014,0.76-0.073,1.059c-0.211,1.242-0.656,1.791-0.927,2.143c-0.143,0.172-0.261,0.277-0.346,0.34
			c-0.082,0.061-0.125,0.092-0.125,0.092s0.012-0.301,0.015-0.807c0-0.488,0.004-1.248-0.151-1.87
			c-0.196-0.647-0.355-0.778-0.88-1.134c-0.116-0.09-0.312-0.131-0.467-0.209c-0.148-0.093-0.355-0.119-0.567-0.15
			c-0.213-0.027-0.411-0.092-0.645-0.111c-0.239-0.005-0.486-0.01-0.738-0.016c-1.01-0.006-2.19,0.127-3.444,0.35
			c-0.615,0.063-1.331,0.251-2.048,0.404c-0.359,0.079-0.726,0.162-1.099,0.243c-0.357,0.102-0.719,0.204-1.09,0.308
			c-3.041,0.82-6.481,1.891-10.244,3.055c-3.773,1.116-7.854,2.389-12.21,3.501c-4.338,1.23-8.957,2.188-13.729,3.221
			c-4.8,0.736-9.731,1.73-14.816,2.122c-2.531,0.225-5.102,0.607-7.648,0.703c-2.545,0.097-5.1,0.191-7.654,0.288l-1.916,0.046
			l-0.957,0.021c-0.399,0.012-0.665-0.02-1.003-0.027c-1.285-0.058-2.568-0.114-3.851-0.172c-2.562-0.125-5.114-0.193-7.645-0.368
			c-5.054-0.638-10.038-0.98-14.826-2.048c-4.803-0.809-9.395-2.198-13.752-3.407c-2.16-0.752-4.263-1.484-6.296-2.193
			c-2.03-0.72-3.96-1.629-5.828-2.385c-1.872-0.731-3.629-1.686-5.318-2.466c-1.699-0.775-3.269-1.604-4.739-2.386
			c-1.461-0.771-2.828-1.49-4.092-2.157c-1.242-0.617-2.383-1.063-3.398-1.379c-0.985-0.212-1.926-0.388-2.483-0.088
			c-0.561,0.236-0.81,0.512-1.019,1.213c-0.185,0.667-0.222,1.403-0.263,1.883C61.994,161.181,61.985,161.467,61.985,161.467z"/>
		<path style="opacity:0.5;fill:#86BAE6;" d="M198.895,13.144c-0.124,4.912-31.656,6.384-55.729,5.769
			c-24.072-0.613-31.569-3.08-31.444-7.993s14.572-6.821,38.644-6.208C174.439,5.328,199.021,8.23,198.895,13.144z"/>
		<g>
			<path style="fill:#FFFFFF;" d="M77.646,68.274c-14.795-1.046-37.151-0.806-46.1,5.267c-8.947,6.069-5.932,24.791-4.19,33.472
				c1.742,8.679,5.312,23.088,12.887,27.704c8.614,5.249,25.759,8.221,40.137,6.532c14.377-1.688,24.002-7.069,29.802-17.728
				c4.694-8.627,11.716-33.858,7.238-42.563S88.808,69.063,77.646,68.274z"/>
			
				<ellipse transform="matrix(1 0.0094 -0.0094 1 0.6919 -0.1689)" style="fill:#86BAE6;" cx="18.396" cy="73.872" rx="7.675" ry="2.431"/>
			<path style="fill:#1D1948;" d="M164.74,67.04c-7.973,2.546-17.384,6.182-25.362,6.106c-7.977-0.074-17.318-3.886-25.242-6.582
				C92.774,59.297,38.794,54.23,4.499,64.852L5.348,83.78c0,0,6.225-1.309,8.212,5.549c1.987,6.857,6.487,35.095,15.097,46.19
				c10.69,13.78,33.983,14.523,49.745,13.995c21.223-0.714,35.2-10.006,41.276-25.907c6.078-15.899,9.551-29.544,13.387-33.841
				c2.069-2.316,4.38-2.462,6.182-2.449c1.802,0.021,4.108,0.21,6.133,2.565c3.755,4.366,6.972,18.075,12.749,34.087
				c5.777,16.012,19.579,25.564,40.785,26.676c15.748,0.824,39.052,0.518,49.998-13.059c8.816-10.932,13.845-39.079,15.961-45.898
				c2.117-6.819,8.314-5.393,8.314-5.393l1.204-18.911C240.3,56.122,186.233,60.174,164.74,67.04z M10.722,73.801
				c0.014-1.344,3.459-2.398,7.698-2.359c4.238,0.04,7.663,1.16,7.651,2.503c-0.013,1.343-3.458,2.399-7.697,2.36
				C14.136,76.266,10.709,75.144,10.722,73.801z M110.182,123.521c-5.8,10.659-15.425,16.041-29.802,17.728
				c-14.378,1.689-31.522-1.283-40.137-6.532c-7.575-4.616-11.145-19.025-12.887-27.704c-1.742-8.681-4.758-27.402,4.19-33.472
				c8.948-6.072,31.305-6.313,46.1-5.267c11.162,0.788,35.297,3.978,39.774,12.683S114.876,114.894,110.182,123.521z
				 M250.745,109.11c-1.904,8.644-5.743,22.984-13.404,27.457c-8.71,5.086-25.907,7.735-40.25,5.777
				c-14.346-1.957-23.867-7.519-29.466-18.287c-4.53-8.713-11.078-34.07-6.439-42.689c4.642-8.62,28.831-11.355,40.007-11.935
				c14.814-0.767,37.159-0.107,45.992,6.131C256.018,81.802,252.65,100.464,250.745,109.11z M260.304,78.575
				c-4.241-0.039-7.665-1.161-7.652-2.503c0.012-1.344,3.457-2.398,7.697-2.359c4.24,0.039,7.664,1.16,7.65,2.503
				C267.987,77.559,264.541,78.615,260.304,78.575z"/>
			<path style="fill:#FFFFFF;" d="M247.185,75.564c-8.833-6.238-31.178-6.897-45.992-6.131
				c-11.176,0.579-35.365,3.314-40.007,11.935c-4.639,8.619,1.909,33.977,6.439,42.689c5.599,10.768,15.12,16.33,29.466,18.287
				c14.343,1.958,31.54-0.691,40.25-5.777c7.661-4.473,11.5-18.813,13.404-27.457C252.65,100.464,256.018,81.802,247.185,75.564z"/>
			
				<ellipse transform="matrix(0.0092 -1 1 0.0092 181.7815 335.756)" style="fill:#86BAE6;" cx="260.326" cy="76.144" rx="2.431" ry="7.675"/>
			<g>
				<circle style="fill:#455BA6;" cx="89.615" cy="98.354" r="24.091"/>
				<circle style="fill:#291F1A;" cx="89.614" cy="98.354" r="16.915"/>
				<circle style="fill:#FFFFFF;" cx="103.783" cy="84.455" r="10.192"/>
			</g>
			<g>
				<circle style="fill:#455BA6;" cx="187.922" cy="98.354" r="24.091"/>
				<circle style="fill:#291F1A;" cx="187.922" cy="98.354" r="16.916"/>
				<circle style="fill:#FFFFFF;" cx="202.089" cy="84.455" r="10.191"/>
			</g>
		</g>
	</g>
	<g style="display:none;">
		<g style="display:inline;">
			<path style="fill:#1D1948;" d="M375.685,196.68c-10.832-4.498-20.165-8.333-20.165-17.996c0-8.501,6.498-12.836,19.166-12.836
				c9.665,0,19.166,2.67,26.333,13.666h0.332l-2.167-27.329c-9.667-2.499-17.498-3.501-26.168-3.501
				c-25.829,0-39.994,15.169-39.994,31.663c0,23.164,16.167,29.996,30.664,36.002c11.332,4.664,21.501,8.997,21.501,20.495
				c0,8.999-5.834,14.67-19.334,14.999c-13.665,0.332-24.5-4.498-34.499-17.496l-0.334,0.164l2.835,27.999
				c7.497,4.498,20.163,6.832,33.663,6.666c26.999-0.336,40.667-15.497,40.667-33.999
				C408.184,210.179,390.518,202.848,375.685,196.68z"/>
			<path style="fill:#1D1948;" d="M499.837,150.854h-40.662c-8.168,0-15.167-0.338-22.835-1.338l-2.831,30.5l0.332,0.17
				c3.833-6.672,11.666-12.336,21.667-12.336h12.664v72.496c0,14.163-5.332,23.166-10.167,26v0.332h43.166v-0.332
				c-5.5-2.833-10.167-11.666-10.167-26V167.85h12.5c9.998,0,17.834,5.664,21.665,12.336l0.334-0.17l-2.833-30.5
				C515.002,150.515,508.004,150.854,499.837,150.854z"/>
			<path style="fill:#1D1948;" d="M641.219,239.346l-24.5-68.663c-3.499-9.831-0.168-16.667,2.999-19.502v-0.327h-44.163v0.327
				c3.165,2.67,6.334,9.672,3.001,19.502l-23.832,68.663c-4.501,12.829-11.666,22.998-16.169,26.999v0.332h35.001v-0.332
				c-2.333-2.17-3.998-9.001,0.332-20.502l1.502-4.001h42.995l1.502,4.001c4.167,11.5,2.833,18.332,0,20.502v0.332h37.664v-0.332
				C652.885,262.51,645.715,252.175,641.219,239.346z M580.888,225.51l6.166-17.662c3.833-10.832,7.831-22.001,9.331-34.83h0.668
				c1.668,12.829,5.832,23.998,9.667,34.83l6.166,17.662H580.888z"/>
			<path style="fill:#1D1948;" d="M814.203,177.514c-0.666-9.167,2.167-22.165,9.667-26.334l-0.171-0.327h-38.495
				c2.001,2.495,1.665,7.327-2.501,14.663l-16.331,28.828c-5.5,9.669-9.833,17.334-12.332,27.501h-0.666
				c-1.499-9.496-5.171-18.495-10.337-27.501l-16.496-28.326c-4.335-7.502-4.671-12.67-2.665-15.165h-38.168l-0.166,0.327
				c7.499,4.501,9.665,17.167,9.001,26.334l-4.332,64.663c-0.836,11.666-4.669,18.334-10.001,24.168l0.164,0.332h36.664l0.168-0.332
				c-3.167-2.833-5.998-10.169-5.496-20.67l1.831-34.492c0.332-7.17,0.332-16.169-1.002-28.669h0.668
				c3.167,11.664,6.668,19.497,11.998,28.165l19.831,31.663c6.166,9.833,7.838,16.501,8.338,20.002h1.331
				c0.334-3.501,1.833-10.169,7.831-20.167l18.502-31.329c5.496-9.335,9.331-17.166,12.829-28.333h0.672
				c-1.506,12.166-1.672,20.836-1.006,28.669l2.67,34.492c0.831,10.501-2.336,17.837-5.503,20.67l0.166,0.332h38.168l0.164-0.332
				c-6-6-9.165-16.167-9.833-24.168L814.203,177.514z"/>
			<path style="fill:#1D1948;" d="M900.021,150.854h-45.497v0.327c4.333,2.835,8.999,10.835,8.999,23.998v66.498
				c0,13.665-4.835,21.835-8.999,24.668v0.332h40.833v-0.332c-4.337-2.833-9.003-10.835-9.003-24.003v-13.834h13.668
				c26.499,0,41.998-12.829,41.998-39.994C942.019,164.517,926.52,150.854,900.021,150.854z M896.186,212.013l-9.833-0.166v-44.499
				h9.833c15.167,0,22.165,7,22.165,22.333C918.351,204.014,911.521,212.179,896.186,212.013z"/>
		</g>
		<g style="display:inline;">
			<path style="fill:#465CA6;" d="M481.216,87.461v10.891h-34.617V87.461H481.216z"/>
			<path style="fill:#465CA6;" d="M516.567,69.595c6.329,0,11.914,1.584,16.474,3.817v10.61c-3.817-2.608-10.33-4.562-15.633-4.562
				c-2.885,0-6.236,0.836-6.236,3.538c0,7.443,25.218,3.721,25.218,20.102c0,10.512-9.585,13.77-20.286,13.77
				c-6.793,0-13.216-1.488-17.775-4.185v-10.703c4.839,3.163,11.632,4.746,17.03,4.746c4.746,0,7.817-0.838,7.817-3.351
				c0-7.166-25.22-4.003-25.22-20.009C497.955,73.037,507.168,69.595,516.567,69.595z"/>
			<path style="fill:#465CA6;" d="M545.222,115.567V70.899h11.446v5.209c2.326-2.79,7.445-6.514,14.238-6.514
				c6.702,0,11.076,2.792,13.681,6.607c3.724-3.628,8.747-6.607,14.888-6.607c12.564,0,16.66,9.771,16.66,17.68v28.292h-12.843
				V88.113c0-4.653-2.885-7.35-6.979-7.35c-3.537,0-6.7,2.047-8.84,4.466c0.091,0.65,0.091,1.302,0.091,2.045v28.292h-12.841V88.113
				c0-4.653-2.885-7.35-6.979-7.35c-3.91,0-7.445,2.603-9.585,5.396v29.408H545.222z"/>
			<path style="fill:#465CA6;" d="M670.746,107.006c0.743,0,1.581-0.093,2.42-0.373v8.47c-2.049,0.743-4.655,1.302-7.166,1.302
				c-4.562,0-8.004-1.677-9.865-5.028c-4.373,3.444-9.492,5.491-16.101,5.491c-8.376,0-15.633-4.839-15.633-13.677
				c0-11.355,10.701-14.892,19.634-14.892c3.537,0,7.447,0.464,10.61,1.211v-1.581c0-4.469-3.538-7.54-10.517-7.54
				c-6.143,0-11.632,1.677-15.819,3.351V72.573c3.628-1.211,10.424-2.979,17.31-2.979c13.399,0,21.962,5.491,21.962,20.193v14.238
				C667.582,106.352,669.07,107.006,670.746,107.006z M637.615,102.167c0,3.351,3.072,5.489,6.982,5.489
				c3.628,0,7.073-1.022,10.049-3.631v-6.979c-1.954-0.463-4.932-1.02-7.631-1.02C642.268,96.026,637.615,97.605,637.615,102.167z"
				/>
			<path style="fill:#465CA6;" d="M712.256,69.968v12.561c-7.072-1.209-13.863,1.493-16.564,6.795v26.243h-12.934V70.899h11.446
				v6.698C697.368,72.666,703.882,69.129,712.256,69.968z"/>
			<path style="fill:#465CA6;" d="M740.121,54.798v16.101h14.147v10.887h-14.147v17.494c0,4.653,2.326,6.702,7.165,6.702
				c2.981,0,5.491-0.463,8.097-1.488v10.421c-3.444,1.209-7.536,1.954-12.005,1.954c-8.654,0-16.101-4.001-16.101-15.076V81.786
				h-7.536V70.899h7.536V57.87L740.121,54.798z"/>
			<path style="fill:#465CA6;" d="M804.881,87.461v10.891h-34.617V87.461H804.881z"/>
		</g>
	</g>
	<g>
		<g>
			<path style="fill:#1D1948;" d="M375.685,196.68c-10.832-4.498-20.165-8.333-20.165-17.996c0-8.501,6.498-12.836,19.166-12.836
				c9.665,0,19.166,2.67,26.333,13.666h0.332l-2.167-27.329c-9.667-2.499-17.498-3.501-26.168-3.501
				c-25.829,0-39.994,15.169-39.994,31.663c0,23.164,16.167,29.996,30.664,36.002c11.332,4.664,21.501,8.997,21.501,20.495
				c0,8.999-5.834,14.67-19.334,14.999c-13.665,0.332-24.5-4.498-34.499-17.496l-0.334,0.164l2.835,27.999
				c7.497,4.498,20.163,6.832,33.663,6.666c26.999-0.336,40.667-15.497,40.667-33.999
				C408.184,210.179,390.518,202.848,375.685,196.68z"/>
			<path style="fill:#1D1948;" d="M499.837,150.854h-40.662c-8.168,0-15.167-0.338-22.835-1.338l-2.831,30.5l0.332,0.17
				c3.833-6.672,11.666-12.336,21.667-12.336h12.664v72.496c0,14.163-5.332,23.166-10.167,26v0.332h43.166v-0.332
				c-5.5-2.833-10.167-11.666-10.167-26V167.85h12.5c9.998,0,17.834,5.664,21.665,12.336l0.334-0.17l-2.833-30.5
				C515.002,150.515,508.004,150.854,499.837,150.854z"/>
			<path style="fill:#1D1948;" d="M641.219,239.346l-24.5-68.663c-3.499-9.831-0.168-16.667,2.999-19.502v-0.327h-44.163v0.327
				c3.165,2.67,6.334,9.672,3.001,19.502l-23.832,68.663c-4.501,12.829-11.666,22.998-16.169,26.999v0.332h35.001v-0.332
				c-2.333-2.17-3.998-9.001,0.332-20.502l1.502-4.001h42.995l1.502,4.001c4.167,11.5,2.833,18.332,0,20.502v0.332h37.664v-0.332
				C652.885,262.51,645.715,252.175,641.219,239.346z M580.888,225.51l6.166-17.662c3.833-10.832,7.831-22.001,9.331-34.83h0.668
				c1.668,12.829,5.832,23.998,9.667,34.83l6.166,17.662H580.888z"/>
			<path style="fill:#1D1948;" d="M814.203,177.514c-0.666-9.167,2.167-22.165,9.667-26.334l-0.171-0.327h-38.495
				c2.001,2.495,1.665,7.327-2.501,14.663l-16.331,28.828c-5.5,9.669-9.833,17.334-12.332,27.501h-0.666
				c-1.499-9.496-5.171-18.495-10.337-27.501l-16.496-28.326c-4.335-7.502-4.671-12.67-2.665-15.165h-38.168l-0.166,0.327
				c7.499,4.501,9.665,17.167,9.001,26.334l-4.332,64.663c-0.836,11.666-4.669,18.334-10.001,24.168l0.164,0.332h36.664l0.168-0.332
				c-3.167-2.833-5.998-10.169-5.496-20.67l1.831-34.492c0.332-7.17,0.332-16.169-1.002-28.669h0.668
				c3.167,11.664,6.668,19.497,11.998,28.165l19.831,31.663c6.166,9.833,7.838,16.501,8.338,20.002h1.331
				c0.334-3.501,1.833-10.169,7.831-20.167l18.502-31.329c5.496-9.335,9.331-17.166,12.829-28.333h0.672
				c-1.506,12.166-1.672,20.836-1.006,28.669l2.67,34.492c0.831,10.501-2.336,17.837-5.503,20.67l0.166,0.332h38.168l0.164-0.332
				c-6-6-9.165-16.167-9.833-24.168L814.203,177.514z"/>
			<path style="fill:#1D1948;" d="M900.021,150.854h-45.497v0.327c4.333,2.835,8.999,10.835,8.999,23.998v66.498
				c0,13.665-4.835,21.835-8.999,24.668v0.332h40.833v-0.332c-4.337-2.833-9.003-10.835-9.003-24.003v-13.834h13.668
				c26.499,0,41.998-12.829,41.998-39.994C942.019,164.517,926.52,150.854,900.021,150.854z M896.186,212.013l-9.833-0.166v-44.499
				h9.833c15.167,0,22.165,7,22.165,22.333C918.351,204.014,911.521,212.179,896.186,212.013z"/>
		</g>
		<g>
			<path style="fill:#465CA6;" d="M366.413,87.461v10.891h-34.617V87.461H366.413z"/>
			<path style="fill:#465CA6;" d="M401.764,69.595c6.329,0,11.914,1.584,16.474,3.817v10.61c-3.817-2.608-10.33-4.562-15.633-4.562
				c-2.885,0-6.236,0.836-6.236,3.538c0,7.443,25.218,3.721,25.218,20.102c0,10.512-9.585,13.77-20.286,13.77
				c-6.793,0-13.216-1.488-17.775-4.185v-10.703c4.839,3.163,11.632,4.746,17.03,4.746c4.746,0,7.817-0.838,7.817-3.351
				c0-7.166-25.22-4.003-25.22-20.009C383.152,73.037,392.365,69.595,401.764,69.595z"/>
			<path style="fill:#465CA6;" d="M430.419,115.567V70.899h11.446v5.209c2.326-2.79,7.445-6.514,14.238-6.514
				c6.702,0,11.076,2.792,13.681,6.607c3.724-3.628,8.747-6.607,14.888-6.607c12.564,0,16.66,9.771,16.66,17.68v28.292h-12.843
				V88.113c0-4.653-2.885-7.35-6.979-7.35c-3.537,0-6.7,2.047-8.84,4.466c0.091,0.65,0.091,1.302,0.091,2.045v28.292H459.92V88.113
				c0-4.653-2.885-7.35-6.979-7.35c-3.91,0-7.445,2.603-9.585,5.396v29.408H430.419z"/>
			<path style="fill:#465CA6;" d="M555.943,107.006c0.743,0,1.581-0.093,2.42-0.373v8.47c-2.049,0.743-4.655,1.302-7.166,1.302
				c-4.562,0-8.004-1.677-9.865-5.028c-4.373,3.444-9.492,5.491-16.101,5.491c-8.376,0-15.633-4.839-15.633-13.677
				c0-11.355,10.701-14.892,19.634-14.892c3.537,0,7.447,0.464,10.61,1.211v-1.581c0-4.469-3.538-7.54-10.517-7.54
				c-6.143,0-11.632,1.677-15.819,3.351V72.573c3.628-1.211,10.424-2.979,17.31-2.979c13.399,0,21.962,5.491,21.962,20.193v14.238
				C552.779,106.352,554.266,107.006,555.943,107.006z M522.812,102.167c0,3.351,3.072,5.489,6.982,5.489
				c3.628,0,7.073-1.022,10.049-3.631v-6.979c-1.954-0.463-4.932-1.02-7.631-1.02C527.465,96.026,522.812,97.605,522.812,102.167z"
				/>
			<path style="fill:#465CA6;" d="M597.453,69.968v12.561c-7.072-1.209-13.863,1.493-16.564,6.795v26.243h-12.934V70.899h11.446
				v6.698C582.565,72.666,589.079,69.129,597.453,69.968z"/>
			<path style="fill:#465CA6;" d="M625.318,54.798v16.101h14.147v10.887h-14.147v17.494c0,4.653,2.326,6.702,7.165,6.702
				c2.981,0,5.491-0.463,8.097-1.488v10.421c-3.444,1.209-7.536,1.954-12.005,1.954c-8.654,0-16.101-4.001-16.101-15.076V81.786
				h-7.536V70.899h7.536V57.87L625.318,54.798z"/>
			<path style="fill:#465CA6;" d="M690.078,87.461v10.891h-34.617V87.461H690.078z"/>
		</g>
	</g>
</g>
</svg>
