<?xml version="1.0" encoding="iso-8859-1"?>
<!-- Generator: Adobe Illustrator 19.0.1, SVG Export Plug-In . SVG Version: 6.00 Build 0)  -->
<svg version="1.1" id="&#x421;&#x43B;&#x43E;&#x439;_1"
	 xmlns="http://www.w3.org/2000/svg" xmlns:xlink="http://www.w3.org/1999/xlink" x="0px" y="0px" viewBox="0 0 38.88 39.84"
	 style="enable-background:new 0 0 38.88 39.84;" xml:space="preserve">
<g>
	<g>
		<defs>
			<rect id="SVGID_1_" width="38.88" height="39.84"/>
		</defs>
		<clipPath id="SVGID_2_">
			<use xlink:href="#SVGID_1_"  style="overflow:visible;"/>
		</clipPath>
		<path style="clip-path:url(#SVGID_2_);" d="M22.582,19.692l15.09-15.09c0.937-0.937,0.937-2.457,0-3.394
			c-0.938-0.938-2.453-0.938-3.391,0l-15.093,15.09L4.098,1.208c-0.938-0.938-2.457-0.938-3.395,0c-0.937,0.937-0.937,2.457,0,3.394
			l15.094,15.09L0.703,34.782c-0.937,0.938-0.937,2.457,0,3.395c0.469,0.468,1.082,0.703,1.695,0.703c0.614,0,1.231-0.235,1.7-0.703
			l15.09-15.09l15.093,15.09c0.469,0.468,1.082,0.703,1.696,0.703c0.613,0,1.226-0.235,1.695-0.703c0.937-0.938,0.937-2.457,0-3.395
			L22.582,19.692z M22.582,19.692"/>
	</g>
</g>
</svg>
