<?xml version="1.0" encoding="iso-8859-1"?>
<!-- Generator: Adobe Illustrator 19.0.1, SVG Export Plug-In . SVG Version: 6.00 Build 0)  -->
<svg version="1.1" id="Capa_1" xmlns="http://www.w3.org/2000/svg" xmlns:xlink="http://www.w3.org/1999/xlink" x="0px" y="0px"
	 viewBox="-49 141 512 512" style="enable-background:new -49 141 512 512;" xml:space="preserve">
<path d="M119.008,536.997h-8.524l38.938-38.938c2.86-2.86,3.715-7.161,2.167-10.898c-1.548-3.737-5.194-6.173-9.239-6.173H76.685
	c-5.523,0-10,4.477-10,10c0,5.523,4.477,10,10,10h41.523L79.27,539.926c-2.86,2.86-3.715,7.161-2.167,10.898
	c1.548,3.737,5.194,6.173,9.239,6.173h32.666c20.953,0,37.999,17.047,37.999,37.999s-17.047,37.999-37.999,37.999
	s-37.999-17.047-37.999-37.999c0-5.523-4.477-10-10-10s-10,4.477-10,10c0,31.98,26.018,57.999,57.999,57.999
	s57.999-26.018,57.999-57.999C177.007,563.015,150.989,536.997,119.008,536.997z"/>
<path d="M241.015,480.998h-1.51c-5.523,0-10,4.477-10,10c0,5.523,4.477,10,10,10h1.51c28.677,0,52.008,23.331,52.008,52.009v27.979
	c0,28.677-23.33,52.009-52.008,52.009h-23.99v-40.999c0-5.523-4.477-10-10-10c-5.523,0-10,4.477-10,10v50.999
	c0,5.523,4.477,10,10,10h33.99c39.705,0,72.007-32.302,72.007-72.008v-27.979C313.022,513.3,280.72,480.998,241.015,480.998z"/>
<path d="M207.026,565.996c2.63,0,5.21-1.07,7.07-2.93s2.93-4.44,2.93-7.07s-1.07-5.21-2.93-7.07c-1.86-1.86-4.44-2.93-7.07-2.93
	s-5.21,1.07-7.07,2.93c-1.86,1.86-2.93,4.44-2.93,7.07s1.07,5.21,2.93,7.07C201.816,564.926,204.396,565.996,207.026,565.996z"/>
<path d="M453,181.005H328.997v-29.999c0-5.523-4.477-10-10-10H95.003c-5.523,0-10,4.477-10,10v29.999H-39c-5.523,0-10,4.477-10,10
	v39.999c0,5.523,4.477,10,10,10H85.003v6c0,2.793,1.148,5.316,2.995,7.131l70.176,70.176c1.46,1.46,3.327,2.414,5.333,2.768v37.906
	c0,3.519,1.85,6.779,4.871,8.584l28.729,17.166c-0.049,0.402-0.082,0.809-0.082,1.224v130.039c0,5.523,4.477,10,10,10
	c5.523,0,10-4.477,10-10V391.959c0-0.422-0.035-0.836-0.086-1.245l28.694-17.145c3.021-1.805,4.871-5.065,4.871-8.584V327.08
	c2.006-0.354,3.874-1.308,5.333-2.768l70.236-70.235c-0.001-0.002-0.002-0.003-0.003-0.005c1.807-1.809,2.925-4.307,2.925-7.067v-6
	h124.003c5.523,0,10-4.477,10-10v-39.999C463,185.482,458.523,181.005,453,181.005z M308.998,161.006v75.998H105.002v-27.999h116.17
	c5.523,0,10-4.477,10-10c0-5.523-4.477-10-10-10h-116.17v-27.999H308.998z M-29,221.004v-20H85.003v20H-29z M230.505,359.311
	l-23.499,14.042l-23.499-14.042V327.24h46.999V359.311z M244.626,307.239h-75.239l-50.236-50.236h175.711L244.626,307.239z
	 M443,221.004H328.997v-20H443L443,221.004L443,221.004z"/>
<path d="M263.542,209.004h0.148c5.523,0,10-4.477,10-10c0-5.523-4.477-10-10-10h-0.148c-5.523,0-10,4.477-10,10
	C253.542,204.527,258.019,209.004,263.542,209.004z"/>
</svg>
