<?xml version="1.0" encoding="iso-8859-1"?>
<!-- Generator: Adobe Illustrator 19.0.1, SVG Export Plug-In . SVG Version: 6.00 Build 0)  -->
<svg version="1.1" id="&#x421;&#x43B;&#x43E;&#x439;_1"
	 xmlns="http://www.w3.org/2000/svg" xmlns:xlink="http://www.w3.org/1999/xlink" x="0px" y="0px" viewBox="0 0 217.556 203.719"
	 style="enable-background:new 0 0 217.556 203.719;" xml:space="preserve">
<g>
	<path style="fill:#050505;" d="M25.15,52.816h165.996c14.582,0,26.41-11.824,26.41-26.41S205.728,0,191.146,0H25.15
		C10.572,0-1.256,11.82-1.256,26.406S10.572,52.816,25.15,52.816L25.15,52.816z M25.15,12.887c7.473,0,13.524,6.054,13.524,13.519
		c0,7.469-6.051,13.524-13.524,13.524c-7.468,0-13.519-6.055-13.519-13.524C11.631,18.937,17.682,12.887,25.15,12.887L25.15,12.887z
		 M25.15,12.887"/>
	<path style="fill:#050505;" d="M191.146,75.453H25.15c-14.578,0-26.406,11.82-26.406,26.406c0,14.586,11.828,26.411,26.406,26.411
		h165.996c14.582,0,26.41-11.825,26.41-26.411C217.553,87.273,205.728,75.453,191.146,75.453L191.146,75.453z M25.15,115.379
		c-7.468,0-13.519-6.051-13.519-13.52c0-7.468,6.051-13.519,13.519-13.519c7.473,0,13.524,6.051,13.524,13.519
		C38.674,109.328,32.623,115.379,25.15,115.379L25.15,115.379z M25.15,115.379"/>
	<path style="fill:#050505;" d="M191.146,150.902H25.15c-14.578,0-26.406,11.825-26.406,26.41c0,14.586,11.828,26.407,26.406,26.407
		h165.996c14.582,0,26.41-11.821,26.41-26.407C217.553,162.727,205.728,150.902,191.146,150.902L191.146,150.902z M25.15,190.832
		c-7.468,0-13.519-6.055-13.519-13.52c0-7.468,6.051-13.519,13.519-13.519c7.473,0,13.524,6.051,13.524,13.519
		C38.674,184.777,32.623,190.832,25.15,190.832L25.15,190.832z M25.15,190.832"/>
</g>
</svg>
