<?xml version="1.0" encoding="iso-8859-1"?>
<!-- Generator: Adobe Illustrator 19.0.1, SVG Export Plug-In . SVG Version: 6.00 Build 0)  -->
<svg version="1.1" id="Layer_1" xmlns="http://www.w3.org/2000/svg" xmlns:xlink="http://www.w3.org/1999/xlink" x="0px" y="0px"
	 viewBox="-49 239.51 512 314.99" style="enable-background:new -49 239.51 512 314.99;" xml:space="preserve">
<g>
	<path d="M318.16,443.65c-0.35-0.34-0.71-0.69-1.07-1.03c-0.1-0.1-0.2-0.2-0.29-0.29C317.26,442.77,317.72,443.21,318.16,443.65z"/>
	<path d="M356.34,469.85c0.68,9.79-3.23,19.29-11.23,26.14c-6.63,5.69-14.7,8.58-22.71,8.17l-1.6-0.09
		c-0.08,0.06-0.17,0.11-0.26,0.16l-0.6,1.5c-2.87,7.2-8.77,13.34-16.61,17.29c-8.12,4.08-17.04,5.38-25.13,3.65l-1.72-0.36
		c-0.08,0.04-0.17,0.07-0.25,0.11l-0.79,1.59c-4.34,8.8-11.95,15.82-20.88,19.28c-7.08,2.76-14.64,2.97-21.41,0.63
		c-1.47,0.57-3.03,0.89-4.65,0.91c-5.12,3.76-12.35,5.67-21.5,5.67c-12.58,0-28.91-7.02-36.49-12.01
		c-9.5-6.23-57.12-42.05-96.75-75.23c-6.48-5.44-16.21-15.61-25.63-25.44l-2.47-2.59c-1.57-1.64-3.09-3.22-4.52-4.71
		c-0.68-0.7-1.34-1.38-1.98-2.04c-0.68-0.7-1.35-1.38-1.98-2.02c-0.3,0.94-0.58,1.84-0.86,2.69c-2.86-2.92-5.26-5.28-6.9-6.67
		c-4.5-3.79-5.05-10.54-1.26-15.04c3.78-4.52,10.5-5.1,15.04-1.26c0.06,0.05,0.12,0.11,0.19,0.16c-0.27,0.89-0.54,1.77-0.8,2.63
		c0.61,0.55,1.29,1.18,2.03,1.9c0.63,0.6,1.3,1.26,2.02,1.97c3.65,3.61,8.31,8.45,13.17,13.53c8.72,9.11,18.61,19.43,24.45,24.35
		c40.4,33.83,87.63,69.09,95.23,74.09c6.67,4.42,19.85,9.36,27.51,9.36c1.6,0,3-0.06,4.24-0.18c1.19-0.11,2.23-0.28,3.13-0.48
		c1.09-0.24,1.99-0.55,2.73-0.89c-0.66-0.62-1.34-1.24-2.03-1.88c1.01-0.34,1.69-0.73,2.15-1.11c0.06-0.05,0.11-0.09,0.16-0.14
		l0.13-0.13c0.14-0.14,0.25-0.27,0.33-0.4c0.05-0.06,0.08-0.12,0.12-0.18c0,0,0,0,0.01-0.01c0.05-0.09,0.1-0.19,0.14-0.27
		c0.09-0.17,0.15-0.33,0.2-0.46c1.21-3.35,4.01-5.87,7.48-6.72c0.94-0.23,1.89-0.32,2.84-0.29c1.79,1.62,3.46,3.1,4.98,4.38
		c0.09,0.07,0.17,0.15,0.25,0.23c0.05,0.04,0.1,0.08,0.15,0.13c1.39,1.24,2.9,2.15,4.52,2.71c0.88,0.31,1.79,0.52,2.72,0.62
		c2.33,0.27,4.83-0.09,7.44-1.08c4.71-1.82,8.73-5.41,11.28-9.74c0.44-0.74,0.83-1.49,1.18-2.27c0.37-0.82,0.68-1.66,0.94-2.52
		c-0.68-0.59-1.37-1.21-2.09-1.86c0.19-0.75,0.31-1.51,0.38-2.28c0.38-4.05,3.03-7.55,6.82-8.98c0.31-0.11,0.62-0.21,0.93-0.3
		c0.29-0.08,0.58-0.14,0.87-0.19c0.05-0.02,0.1-0.03,0.15-0.03c0.27-0.05,0.55-0.09,0.82-0.11c0.39-0.04,0.77-0.06,1.16-0.05
		c1.86,1.68,3.54,3.13,4.99,4.28c0.23,0.18,0.45,0.37,0.65,0.58c0.02,0.02,0.04,0.04,0.06,0.06c1.03,0.86,2.46,1.54,4.15,1.96
		c0.85,0.22,1.78,0.37,2.76,0.44c3.64,0.28,8-0.45,12.27-2.61c1.96-0.98,5.49-3.11,7.69-6.57c0.45-0.71,0.84-1.48,1.16-2.31
		c0.32-0.85,0.56-1.76,0.67-2.74c-0.75-0.67-1.57-1.41-2.44-2.23c0-0.13-0.02-0.27-0.03-0.4c-0.44-4.14,1.56-8.17,5.15-10.3
		c0.42-0.25,0.85-0.47,1.29-0.66c0.39-0.16,0.79-0.3,1.19-0.42c0.11-0.04,0.22-0.07,0.33-0.09c0.95-0.25,1.92-0.36,2.9-0.33h0.04
		c2.03,1.89,3.65,3.33,4.75,4.2c0.01,0.01,0.03,0.02,0.04,0.03c1.23,0.74,2.7,1.15,4.28,1.24c0.87,0.05,1.79,0,2.72-0.14
		c2.97-0.44,6.09-1.86,8.74-4.13c1.99-1.7,5.61-5.58,5.66-11.4c0.01-1.02-0.09-2.09-0.34-3.22c-0.28-1.37-0.77-2.84-1.51-4.38
		c-0.66-1.37-1.49-2.81-2.48-4.32c-0.63-0.96-1.32-1.94-2.08-2.95c-12.93-17.35-43.54-42.1-70.96-64.29l-0.09-0.07
		c-16.49-13.33-33.54-27.11-45.87-38.68l-1.17-1.1l-1.48,0.6c-3.23,1.31-5.62,2.38-7.56,3.24c-5.27,2.37-8.83,3.88-15.37,4.89
		l-1.01,0.15l-0.61,0.81c-15.93,21.15-36.63,28.27-59.87,20.6c-8.77-2.89-14.69-9.08-16.68-17.43
		c-4.78-20.21,13.63-48.04,27.72-62.5c0.31-0.31,0.61-0.62,0.91-0.92c0.53-0.53,1.06-1.06,1.59-1.58c0.85-0.85,1.7-1.68,2.54-2.5
		h-3.58c6.19-6.11,12.09-11.57,17.85-16.33h4c0.94-0.75,1.88-1.48,2.82-2.18c0.82-0.63,1.64-1.23,2.45-1.82
		c24.99-18.08,48.48-21.68,83.63-5.97c22.11,9.9,44.27,18.67,60.37,24.79c1.26,0.48,2.49,0.94,3.67,1.39
		c1.21,0.45,2.38,0.89,3.5,1.31c-0.61-1.23-1.2-2.34-1.75-3.32c11.91,4.46,19.52,7.12,19.71,7.19c0.86,0.3,1.65,0.69,2.37,1.17
		c1.46,3.35,3,6.98,4.61,10.86v0.01c-0.1,0.52-0.23,1.04-0.41,1.55c-1.94,5.57-7.98,8.51-13.59,6.57c-0.02-0.01-0.15-0.05-0.38-0.13
		c-0.44-1.06-0.86-2.09-1.28-3.11h-0.01c-0.85-0.3-1.91-0.68-3.14-1.13c-0.95-0.34-2-0.72-3.16-1.14
		c-14.8-5.4-46.03-17.14-77.2-31.08c-28.98-12.95-47.1-11.01-69,5.41c-1.17,0.87-2.35,1.79-3.54,2.75
		c-2.01,1.61-4.06,3.34-6.16,5.19c-1.1,0.97-2.21,1.98-3.34,3.02c-3.52,3.23-7.19,6.78-11.05,10.64
		c-13.64,13.65-26.95,36.75-24.24,48.08c0.47,2.01,1.54,4.26,5.89,5.7c17.52,5.88,31.92-0.04,44-18.11
		c1.36-2.02,3.54-3.32,5.98-3.57c7.57-0.76,9.6-1.67,15.08-4.13l0.49-0.22c3.43-1.53,7.7-3.43,14.46-5.88
		c2.98-1.07,6.33-0.32,8.55,1.91c11.81,11.81,30.14,26.63,49.55,42.33c28.25,22.85,57.29,46.34,72.28,65.32
		c0.53,0.67,1.04,1.33,1.52,1.99c0.52,0.68,1.01,1.35,1.48,2.02l2.08-1.39c2.01,2.86,3.67,5.6,4.93,8.22
		c1.03,2.14,1.84,4.32,2.43,6.51l-2.21,1.48c0.22,0.89,0.4,1.77,0.53,2.66C356.18,467.99,356.28,468.92,356.34,469.85z"/>
	<path style="fill:#FFFFFF;" d="M316.8,442.33c0.09,0.09,0.19,0.19,0.29,0.29c0.36,0.34,0.72,0.69,1.07,1.03
		C317.72,443.21,317.26,442.77,316.8,442.33z M233.61,529.41c-1.52-1.28-3.19-2.76-4.98-4.38c-0.81-0.75-1.64-1.52-2.5-2.32
		c-0.31,0.04-0.62,0.11-0.93,0.18c-4.28,1.05-7.74,4.15-9.24,8.28c-0.29,0.77-1.53,1.25-3.04,1.54c0.73,0.69,1.44,1.36,2.15,2.03
		c0.69,0.64,1.37,1.26,2.03,1.88c2.16-1,3.04-2.37,3.56-3.73c0.93-2.57,3.07-4.49,5.72-5.14c2.66-0.64,5.46,0.07,7.48,1.89
		C233.78,529.56,233.7,529.48,233.61,529.41z M320.06,484.43c-0.01,0-0.02,0-0.03-0.01c0.02,0.01,0.03,0.02,0.05,0.03
		C320.07,484.44,320.07,484.43,320.06,484.43z M313.96,482.35c-0.76-0.7-1.58-1.48-2.45-2.32c-1.6,0.26-3.15,0.82-4.58,1.67
		c-3.75,2.23-6.12,6.18-6.4,10.45c0.9,0.85,1.75,1.66,2.56,2.4c0.87,0.82,1.69,1.56,2.44,2.23c0.12-0.91,0.13-1.87,0.02-2.9
		c-0.34-3.16,1.2-6.26,3.94-7.89c2.72-1.62,6.18-1.51,8.8,0.29c0.14,0.1,0.27,0.19,0.42,0.27
		C317.61,485.68,315.99,484.24,313.96,482.35z M276.12,507.97c-1.45-1.15-3.13-2.6-4.99-4.28c-0.8-0.73-1.64-1.49-2.51-2.29
		c-0.77,0.14-1.54,0.35-2.3,0.63c-4.65,1.75-7.96,6.1-8.43,11.09c-0.02,0.17-0.04,0.35-0.06,0.52c0.74,0.69,1.47,1.35,2.17,1.99
		c0.72,0.65,1.41,1.27,2.09,1.86c0.39-1.28,0.66-2.58,0.78-3.9c0.29-3.1,2.34-5.8,5.2-6.88c2.96-1.09,6.22-0.45,8.5,1.67
		c0.06,0.06,0.13,0.12,0.2,0.17C276.57,508.34,276.35,508.15,276.12,507.97z M233.61,529.41c-1.52-1.28-3.19-2.76-4.98-4.38
		c-0.81-0.75-1.64-1.52-2.5-2.32c-0.31,0.04-0.62,0.11-0.93,0.18c-4.28,1.05-7.74,4.15-9.24,8.28c-0.29,0.77-1.53,1.25-3.04,1.54
		c0.73,0.69,1.44,1.36,2.15,2.03c0.69,0.64,1.37,1.26,2.03,1.88c2.16-1,3.04-2.37,3.56-3.73c0.93-2.57,3.07-4.49,5.72-5.14
		c2.66-0.64,5.46,0.07,7.48,1.89C233.78,529.56,233.7,529.48,233.61,529.41z M320.06,484.43c-0.01,0-0.02,0-0.03-0.01
		c0.02,0.01,0.03,0.02,0.05,0.03C320.07,484.44,320.07,484.43,320.06,484.43z M313.96,482.35c-0.76-0.7-1.58-1.48-2.45-2.32
		c-1.6,0.26-3.15,0.82-4.58,1.67c-3.75,2.23-6.12,6.18-6.4,10.45c0.9,0.85,1.75,1.66,2.56,2.4c0.87,0.82,1.69,1.56,2.44,2.23
		c0.12-0.91,0.13-1.87,0.02-2.9c-0.34-3.16,1.2-6.26,3.94-7.89c2.72-1.62,6.18-1.51,8.8,0.29c0.14,0.1,0.27,0.19,0.42,0.27
		C317.61,485.68,315.99,484.24,313.96,482.35z M276.12,507.97c-1.45-1.15-3.13-2.6-4.99-4.28c-0.8-0.73-1.64-1.49-2.51-2.29
		c-0.77,0.14-1.54,0.35-2.3,0.63c-4.65,1.75-7.96,6.1-8.43,11.09c-0.02,0.17-0.04,0.35-0.06,0.52c0.74,0.69,1.47,1.35,2.17,1.99
		c0.72,0.65,1.41,1.27,2.09,1.86c0.39-1.28,0.66-2.58,0.78-3.9c0.29-3.1,2.34-5.8,5.2-6.88c2.96-1.09,6.22-0.45,8.5,1.67
		c0.06,0.06,0.13,0.12,0.2,0.17C276.57,508.34,276.35,508.15,276.12,507.97z M233.61,529.41c-1.52-1.28-3.19-2.76-4.98-4.38
		c-0.81-0.75-1.64-1.52-2.5-2.32c-0.31,0.04-0.62,0.11-0.93,0.18c-4.28,1.05-7.74,4.15-9.24,8.28c-0.29,0.77-1.53,1.25-3.04,1.54
		c0.73,0.69,1.44,1.36,2.15,2.03c0.69,0.64,1.37,1.26,2.03,1.88c2.16-1,3.04-2.37,3.56-3.73c0.93-2.57,3.07-4.49,5.72-5.14
		c2.66-0.64,5.46,0.07,7.48,1.89C233.78,529.56,233.7,529.48,233.61,529.41z M320.06,484.43c-0.01,0-0.02,0-0.03-0.01
		c0.02,0.01,0.03,0.02,0.05,0.03C320.07,484.44,320.07,484.43,320.06,484.43z M313.96,482.35c-0.76-0.7-1.58-1.48-2.45-2.32
		c-1.6,0.26-3.15,0.82-4.58,1.67c-3.75,2.23-6.12,6.18-6.4,10.45c0.9,0.85,1.75,1.66,2.56,2.4c0.87,0.82,1.69,1.56,2.44,2.23
		c0.12-0.91,0.13-1.87,0.02-2.9c-0.34-3.16,1.2-6.26,3.94-7.89c2.72-1.62,6.18-1.51,8.8,0.29c0.14,0.1,0.27,0.19,0.42,0.27
		C317.61,485.68,315.99,484.24,313.96,482.35z M276.12,507.97c-1.45-1.15-3.13-2.6-4.99-4.28c-0.8-0.73-1.64-1.49-2.51-2.29
		c-0.77,0.14-1.54,0.35-2.3,0.63c-4.65,1.75-7.96,6.1-8.43,11.09c-0.02,0.17-0.04,0.35-0.06,0.52c0.74,0.69,1.47,1.35,2.17,1.99
		c0.72,0.65,1.41,1.27,2.09,1.86c0.39-1.28,0.66-2.58,0.78-3.9c0.29-3.1,2.34-5.8,5.2-6.88c2.96-1.09,6.22-0.45,8.5,1.67
		c0.06,0.06,0.13,0.12,0.2,0.17C276.57,508.34,276.35,508.15,276.12,507.97z M233.61,529.41c-1.52-1.28-3.19-2.76-4.98-4.38
		c-0.95-0.03-1.9,0.06-2.84,0.29c-3.47,0.85-6.27,3.37-7.48,6.72c-0.05,0.13-0.11,0.29-0.2,0.46c-0.04,0.08-0.09,0.18-0.14,0.27
		c-0.01,0.01-0.01,0.01-0.01,0.01c-0.04,0.06-0.07,0.12-0.12,0.18c-0.08,0.13-0.19,0.26-0.33,0.4l-0.13,0.13
		c-0.05,0.05-0.1,0.09-0.16,0.14c-0.46,0.38-1.14,0.77-2.15,1.11c0.69,0.64,1.37,1.26,2.03,1.88c2.16-1,3.04-2.37,3.56-3.73
		c0.93-2.57,3.07-4.49,5.72-5.14c2.66-0.64,5.46,0.07,7.48,1.89C233.78,529.56,233.7,529.48,233.61,529.41z M320.06,484.43
		c-0.01,0-0.02,0-0.03-0.01c0.02,0.01,0.03,0.02,0.05,0.03C320.07,484.44,320.07,484.43,320.06,484.43z M313.96,482.35h-0.04
		c-0.98-0.03-1.95,0.08-2.9,0.33c-0.11,0.02-0.22,0.05-0.33,0.09c-0.4,0.12-0.8,0.26-1.19,0.42c-0.44,0.19-0.87,0.41-1.29,0.66
		c-3.59,2.13-5.59,6.16-5.15,10.3c0.01,0.13,0.03,0.27,0.03,0.4c0.87,0.82,1.69,1.56,2.44,2.23c0.12-0.91,0.13-1.87,0.02-2.9
		c-0.34-3.16,1.2-6.26,3.94-7.89c2.72-1.62,6.18-1.51,8.8,0.29c0.14,0.1,0.27,0.19,0.42,0.27
		C317.61,485.68,315.99,484.24,313.96,482.35z M276.12,507.97c-1.45-1.15-3.13-2.6-4.99-4.28c-0.39-0.01-0.77,0.01-1.16,0.05
		c-0.27,0.02-0.55,0.06-0.82,0.11c-0.05,0-0.1,0.01-0.15,0.03c-0.29,0.05-0.58,0.12-0.87,0.19c-0.31,0.09-0.62,0.19-0.93,0.3
		c-3.79,1.43-6.44,4.93-6.82,8.98c-0.07,0.77-0.19,1.53-0.38,2.28c0.72,0.65,1.41,1.27,2.09,1.86c0.39-1.28,0.66-2.58,0.78-3.9
		c0.29-3.1,2.34-5.8,5.2-6.88c2.96-1.09,6.22-0.45,8.5,1.67c0.06,0.06,0.13,0.12,0.2,0.17
		C276.57,508.34,276.35,508.15,276.12,507.97z M316.8,442.33c0.09,0.09,0.19,0.19,0.29,0.29c0.36,0.34,0.72,0.69,1.07,1.03
		C317.72,443.21,317.26,442.77,316.8,442.33z M357.52,455.33c-1.31-2.73-3.03-5.58-5.12-8.53l-2.06,1.39l-2.08,1.39
		c1.94,2.76,3.54,5.4,4.75,7.92c1.09,2.27,1.92,4.58,2.48,6.9l2.21-1.48l2.18-1.47C359.28,459.39,358.49,457.35,357.52,455.33z
		 M156.24,282.17c-5.42,4.62-11.21,10.02-17.53,16.33h7.12c6.33-6.17,12.37-11.64,18.27-16.33H156.24z M345.48,315.6v-0.01
		c-1.61-3.88-3.15-7.51-4.61-10.86c-0.53-1.22-1.06-2.4-1.57-3.54c-0.86-0.3-9.44-3.31-22.29-8.17c0.19,0.57,0.45,1.12,0.77,1.64
		c0.32,0.52,0.66,1.09,1.01,1.71c0.55,0.98,1.14,2.09,1.75,3.32c10.02,3.74,16.47,6,17.14,6.23c4.24,1.48,6.5,6.15,5.03,10.41
		c-1.48,4.25-6.16,6.5-10.41,5.03c-0.22-0.08-1.08-0.38-2.48-0.88c0.42,1.02,0.84,2.05,1.28,3.11c0.39,0.96,0.78,1.94,1.19,2.94
		c5.96,1.24,12.07-1.8,14.64-7.35C346.44,317.97,345.95,316.77,345.48,315.6z M35.15,405.19c-3.34,0.29-6.39,1.81-8.6,4.3
		c-1.19,3.9-2.29,7.47-3.28,10.66c0.44,3.23,2.04,6.14,4.54,8.24c1.74,1.48,4.42,4.14,7.65,7.46c0.27-0.83,0.56-1.73,0.86-2.7
		c0.28-0.85,0.56-1.75,0.86-2.69c-2.51-2.55-4.62-4.6-6.15-5.89c-1.66-1.4-2.68-3.37-2.86-5.55s0.5-4.3,1.91-5.98
		c1.39-1.66,3.35-2.68,5.5-2.87c0.24-0.02,0.48-0.03,0.72-0.03c1.93,0,3.78,0.68,5.29,1.95c0.31,0.26,0.64,0.55,1,0.88
		c0.26-0.86,0.53-1.74,0.8-2.63c0.26-0.85,0.51-1.71,0.78-2.58C41.56,405.82,38.4,404.91,35.15,405.19z M233.61,529.41
		c-1.52-1.28-3.19-2.76-4.98-4.38c-0.81-0.75-1.64-1.52-2.5-2.32c-0.31,0.04-0.62,0.11-0.93,0.18c-4.28,1.05-7.74,4.15-9.24,8.28
		c-0.29,0.77-1.53,1.25-3.04,1.54c0.73,0.69,1.44,1.36,2.15,2.03c0.69,0.64,1.37,1.26,2.03,1.88c2.16-1,3.04-2.37,3.56-3.73
		c0.93-2.57,3.07-4.49,5.72-5.14c2.66-0.64,5.46,0.07,7.48,1.89C233.78,529.56,233.7,529.48,233.61,529.41z M320.06,484.43
		c-0.01,0-0.02,0-0.03-0.01c0.02,0.01,0.03,0.02,0.05,0.03C320.07,484.44,320.07,484.43,320.06,484.43z M313.96,482.35
		c-0.76-0.7-1.58-1.48-2.45-2.32c-1.6,0.26-3.15,0.82-4.58,1.67c-3.75,2.23-6.12,6.18-6.4,10.45c0.9,0.85,1.75,1.66,2.56,2.4
		c0.87,0.82,1.69,1.56,2.44,2.23c0.12-0.91,0.13-1.87,0.02-2.9c-0.34-3.16,1.2-6.26,3.94-7.89c2.72-1.62,6.18-1.51,8.8,0.29
		c0.14,0.1,0.27,0.19,0.42,0.27C317.61,485.68,315.99,484.24,313.96,482.35z M276.12,507.97c-1.45-1.15-3.13-2.6-4.99-4.28
		c-0.8-0.73-1.64-1.49-2.51-2.29c-0.77,0.14-1.54,0.35-2.3,0.63c-4.65,1.75-7.96,6.1-8.43,11.09c-0.02,0.17-0.04,0.35-0.06,0.52
		c0.74,0.69,1.47,1.35,2.17,1.99c0.72,0.65,1.41,1.27,2.09,1.86c0.39-1.28,0.66-2.58,0.78-3.9c0.29-3.1,2.34-5.8,5.2-6.88
		c2.96-1.09,6.22-0.45,8.5,1.67c0.06,0.06,0.13,0.12,0.2,0.17C276.57,508.34,276.35,508.15,276.12,507.97z M320.61,504.06
		l-0.07,0.17c0.09-0.05,0.18-0.1,0.26-0.16L320.61,504.06z M276.3,526.27l-0.07,0.15c0.08-0.04,0.17-0.07,0.25-0.11L276.3,526.27z
		 M232.12,547.54l-1.38-0.53l-1.13,0.95c-0.36,0.3-0.73,0.59-1.11,0.87c1.62-0.02,3.18-0.34,4.65-0.91
		C232.8,547.8,232.46,547.67,232.12,547.54z M233.61,529.41c-1.52-1.28-3.19-2.76-4.98-4.38c-0.81-0.75-1.64-1.52-2.5-2.32
		c-0.31,0.04-0.62,0.11-0.93,0.18c-4.28,1.05-7.74,4.15-9.24,8.28c-0.29,0.77-1.53,1.25-3.04,1.54c0.73,0.69,1.44,1.36,2.15,2.03
		c0.69,0.64,1.37,1.26,2.03,1.88c2.16-1,3.04-2.37,3.56-3.73c0.93-2.57,3.07-4.49,5.72-5.14c2.66-0.64,5.46,0.07,7.48,1.89
		C233.78,529.56,233.7,529.48,233.61,529.41z M320.06,484.43c-0.01,0-0.02,0-0.03-0.01c0.02,0.01,0.03,0.02,0.05,0.03
		C320.07,484.44,320.07,484.43,320.06,484.43z M313.96,482.35c-0.76-0.7-1.58-1.48-2.45-2.32c-1.6,0.26-3.15,0.82-4.58,1.67
		c-3.75,2.23-6.12,6.18-6.4,10.45c0.9,0.85,1.75,1.66,2.56,2.4c0.87,0.82,1.69,1.56,2.44,2.23c0.12-0.91,0.13-1.87,0.02-2.9
		c-0.34-3.16,1.2-6.26,3.94-7.89c2.72-1.62,6.18-1.51,8.8,0.29c0.14,0.1,0.27,0.19,0.42,0.27
		C317.61,485.68,315.99,484.24,313.96,482.35z M276.12,507.97c-1.45-1.15-3.13-2.6-4.99-4.28c-0.8-0.73-1.64-1.49-2.51-2.29
		c-0.77,0.14-1.54,0.35-2.3,0.63c-4.65,1.75-7.96,6.1-8.43,11.09c-0.02,0.17-0.04,0.35-0.06,0.52c0.74,0.69,1.47,1.35,2.17,1.99
		c0.72,0.65,1.41,1.27,2.09,1.86c0.39-1.28,0.66-2.58,0.78-3.9c0.29-3.1,2.34-5.8,5.2-6.88c2.96-1.09,6.22-0.45,8.5,1.67
		c0.06,0.06,0.13,0.12,0.2,0.17C276.57,508.34,276.35,508.15,276.12,507.97z M233.61,529.41c-1.52-1.28-3.19-2.76-4.98-4.38
		c-0.81-0.75-1.64-1.52-2.5-2.32c-0.31,0.04-0.62,0.11-0.93,0.18c-4.28,1.05-7.74,4.15-9.24,8.28c-0.29,0.77-1.53,1.25-3.04,1.54
		c0.73,0.69,1.44,1.36,2.15,2.03c0.69,0.64,1.37,1.26,2.03,1.88c2.16-1,3.04-2.37,3.56-3.73c0.93-2.57,3.07-4.49,5.72-5.14
		c2.66-0.64,5.46,0.07,7.48,1.89C233.78,529.56,233.7,529.48,233.61,529.41z M320.06,484.43c-0.01,0-0.02,0-0.03-0.01
		c0.02,0.01,0.03,0.02,0.05,0.03C320.07,484.44,320.07,484.43,320.06,484.43z M313.96,482.35c-0.76-0.7-1.58-1.48-2.45-2.32
		c-1.6,0.26-3.15,0.82-4.58,1.67c-3.75,2.23-6.12,6.18-6.4,10.45c0.9,0.85,1.75,1.66,2.56,2.4c0.87,0.82,1.69,1.56,2.44,2.23
		c0.12-0.91,0.13-1.87,0.02-2.9c-0.34-3.16,1.2-6.26,3.94-7.89c2.72-1.62,6.18-1.51,8.8,0.29c0.14,0.1,0.27,0.19,0.42,0.27
		C317.61,485.68,315.99,484.24,313.96,482.35z M276.12,507.97c-1.45-1.15-3.13-2.6-4.99-4.28c-0.8-0.73-1.64-1.49-2.51-2.29
		c-0.77,0.14-1.54,0.35-2.3,0.63c-4.65,1.75-7.96,6.1-8.43,11.09c-0.02,0.17-0.04,0.35-0.06,0.52c0.74,0.69,1.47,1.35,2.17,1.99
		c0.72,0.65,1.41,1.27,2.09,1.86c0.39-1.28,0.66-2.58,0.78-3.9c0.29-3.1,2.34-5.8,5.2-6.88c2.96-1.09,6.22-0.45,8.5,1.67
		c0.06,0.06,0.13,0.12,0.2,0.17C276.57,508.34,276.35,508.15,276.12,507.97z M316.8,442.33c0.09,0.09,0.19,0.19,0.29,0.29
		c0.36,0.34,0.72,0.69,1.07,1.03C317.72,443.21,317.26,442.77,316.8,442.33z M233.61,529.41c-1.52-1.28-3.19-2.76-4.98-4.38
		c-0.81-0.75-1.64-1.52-2.5-2.32c-0.31,0.04-0.62,0.11-0.93,0.18c-4.28,1.05-7.74,4.15-9.24,8.28c-0.29,0.77-1.53,1.25-3.04,1.54
		c0.73,0.69,1.44,1.36,2.15,2.03c0.69,0.64,1.37,1.26,2.03,1.88c2.16-1,3.04-2.37,3.56-3.73c0.93-2.57,3.07-4.49,5.72-5.14
		c2.66-0.64,5.46,0.07,7.48,1.89C233.78,529.56,233.7,529.48,233.61,529.41z M320.06,484.43c-0.01,0-0.02,0-0.03-0.01
		c0.02,0.01,0.03,0.02,0.05,0.03C320.07,484.44,320.07,484.43,320.06,484.43z M313.96,482.35c-0.76-0.7-1.58-1.48-2.45-2.32
		c-1.6,0.26-3.15,0.82-4.58,1.67c-3.75,2.23-6.12,6.18-6.4,10.45c0.9,0.85,1.75,1.66,2.56,2.4c0.87,0.82,1.69,1.56,2.44,2.23
		c0.12-0.91,0.13-1.87,0.02-2.9c-0.34-3.16,1.2-6.26,3.94-7.89c2.72-1.62,6.18-1.51,8.8,0.29c0.14,0.1,0.27,0.19,0.42,0.27
		C317.61,485.68,315.99,484.24,313.96,482.35z M276.12,507.97c-1.45-1.15-3.13-2.6-4.99-4.28c-0.8-0.73-1.64-1.49-2.51-2.29
		c-0.77,0.14-1.54,0.35-2.3,0.63c-4.65,1.75-7.96,6.1-8.43,11.09c-0.02,0.17-0.04,0.35-0.06,0.52c0.74,0.69,1.47,1.35,2.17,1.99
		c0.72,0.65,1.41,1.27,2.09,1.86c0.39-1.28,0.66-2.58,0.78-3.9c0.29-3.1,2.34-5.8,5.2-6.88c2.96-1.09,6.22-0.45,8.5,1.67
		c0.06,0.06,0.13,0.12,0.2,0.17C276.57,508.34,276.35,508.15,276.12,507.97z M316.8,442.33c0.09,0.09,0.19,0.19,0.29,0.29
		c0.36,0.34,0.72,0.69,1.07,1.03C317.72,443.21,317.26,442.77,316.8,442.33z M233.61,529.41c-1.52-1.28-3.19-2.76-4.98-4.38
		c-0.81-0.75-1.64-1.52-2.5-2.32c-0.31,0.04-0.62,0.11-0.93,0.18c-4.28,1.05-7.74,4.15-9.24,8.28c-0.29,0.77-1.53,1.25-3.04,1.54
		c0.73,0.69,1.44,1.36,2.15,2.03c0.69,0.64,1.37,1.26,2.03,1.88c2.16-1,3.04-2.37,3.56-3.73c0.93-2.57,3.07-4.49,5.72-5.14
		c2.66-0.64,5.46,0.07,7.48,1.89C233.78,529.56,233.7,529.48,233.61,529.41z M320.06,484.43c-0.01,0-0.02,0-0.03-0.01
		c0.02,0.01,0.03,0.02,0.05,0.03C320.07,484.44,320.07,484.43,320.06,484.43z M313.96,482.35c-0.76-0.7-1.58-1.48-2.45-2.32
		c-1.6,0.26-3.15,0.82-4.58,1.67c-3.75,2.23-6.12,6.18-6.4,10.45c0.9,0.85,1.75,1.66,2.56,2.4c0.87,0.82,1.69,1.56,2.44,2.23
		c0.12-0.91,0.13-1.87,0.02-2.9c-0.34-3.16,1.2-6.26,3.94-7.89c2.72-1.62,6.18-1.51,8.8,0.29c0.14,0.1,0.27,0.19,0.42,0.27
		C317.61,485.68,315.99,484.24,313.96,482.35z M276.12,507.97c-1.45-1.15-3.13-2.6-4.99-4.28c-0.8-0.73-1.64-1.49-2.51-2.29
		c-0.77,0.14-1.54,0.35-2.3,0.63c-4.65,1.75-7.96,6.1-8.43,11.09c-0.02,0.17-0.04,0.35-0.06,0.52c0.74,0.69,1.47,1.35,2.17,1.99
		c0.72,0.65,1.41,1.27,2.09,1.86c0.39-1.28,0.66-2.58,0.78-3.9c0.29-3.1,2.34-5.8,5.2-6.88c2.96-1.09,6.22-0.45,8.5,1.67
		c0.06,0.06,0.13,0.12,0.2,0.17C276.57,508.34,276.35,508.15,276.12,507.97z"/>
</g>
<g>
	<path d="M75,282.17c-0.74,5.16-1.67,10.64-2.74,16.33c-0.15,0.83-0.31,1.66-0.48,2.5h-3.45c-5.88,0-10.66-4.78-10.66-10.67
		c0-5.88,4.78-10.66,10.66-10.66h7.02C75.24,280.49,75.12,281.32,75,282.17z"/>
	<path d="M175,290.33c0,1.79-0.44,3.48-1.23,4.96c-2.01,1.61-4.06,3.34-6.16,5.19c-1.03,0.34-2.13,0.52-3.28,0.52h-21.04
		c0.85-0.85,1.7-1.68,2.54-2.5H60.332c1.06-5.69,1.98-11.16,2.71-16.33H164.1c0.94-0.75,1.88-1.48,2.82-2.18
		C171.56,281.14,175,285.34,175,290.33z"/>
	<path d="M169.37,278.17c-0.81,0.59-1.63,1.19-2.45,1.82c-0.94,0.7-1.88,1.43-2.82,2.18h0.23c4.51,0,8.17,3.66,8.17,8.16
		c0,4.51-3.66,8.17-8.17,8.17h-18.5c-0.84,0.82-1.69,1.65-2.54,2.5c-0.53,0.52-1.06,1.05-1.59,1.58c-0.3,0.3-0.6,0.61-0.91,0.92
		h23.48c1.13-1.04,2.24-2.05,3.34-3.02c2.1-1.85,4.15-3.58,6.16-5.19c1.19-0.96,2.37-1.88,3.54-2.75c0.13-0.72,0.19-1.46,0.19-2.21
		C177.5,284.85,174.14,280.15,169.37,278.17z M68.33,277.17c-3.86,0-7.34,1.67-9.75,4.33c-0.66,4.42-1.46,9.09-2.38,13.94
		c2,4.73,6.68,8.06,12.13,8.06h2.96c0.17-0.84,0.33-1.67,0.49-2.5c0.17-0.84,0.33-1.67,0.48-2.5L75,282.17
		c0.12-0.85,0.24-1.68,0.35-2.5c0.11-0.85,0.22-1.68,0.32-2.5H68.33z"/>
</g>
<g>
	<path d="M383.62,448.52l-6.27,4.21c-0.25-0.81-0.51-1.64-0.78-2.49l-2.16,1.46l-2.16,1.45l-12.37,8.3l-2.18,1.47l-2.21,1.48
		c0.22,0.89,0.4,1.77,0.53,2.66l-3.59,2.41c-1.84,1.24-3.9,1.81-5.93,1.81c-2.41,0-4.78-0.81-6.69-2.35
		c-0.28-1.37-0.77-2.84-1.51-4.38c-0.66-1.37-1.49-2.81-2.48-4.32c0.12-3.29,1.76-6.49,4.71-8.47l6.25-4.2
		c0.52,0.68,1.01,1.35,1.48,2.02l2.08-1.39l2.06-1.39l14.62-9.82l2.15-1.44l2.15-1.45c-0.27-0.81-0.54-1.63-0.82-2.46v-0.01
		l1.21-0.81c4.89-3.32,11.5-1.98,14.81,2.9C389.81,438.6,388.5,445.23,383.62,448.52z"/>
	<path d="M387.41,430.8c-1.93-2.11-4.46-3.54-7.3-4.09c-3.44-0.65-6.92,0.07-9.79,2.03l-0.65,0.43c0.28,0.83,0.56,1.64,0.83,2.45
		v0.01c0.28,0.83,0.55,1.65,0.82,2.46l1.8-1.21c1.35-0.92,2.92-1.4,4.52-1.4c0.51,0,1.02,0.05,1.53,0.15
		c2.16,0.41,4.04,1.65,5.28,3.48c1.21,1.81,1.65,3.98,1.23,6.13c-0.42,2.14-1.65,3.99-3.45,5.2l-5.66,3.8
		c0.27,0.85,0.53,1.68,0.78,2.49c0.27,0.86,0.52,1.69,0.77,2.49l6.89-4.63c2.92-1.96,4.9-4.94,5.58-8.39
		c0.08-0.38,0.13-0.76,0.17-1.14C389.74,437.88,388.62,434.44,387.41,430.8z M356.02,467.06c-0.13-0.89-0.31-1.77-0.53-2.66l-4.46,3
		c-1.34,0.9-2.91,1.38-4.53,1.38c-2.73,0-5.27-1.35-6.8-3.61c-2.51-3.73-1.52-8.82,2.22-11.33l6.34-4.26
		c-0.47-0.67-0.96-1.34-1.48-2.02c-0.48-0.66-0.99-1.32-1.52-1.99l-6.13,4.12c-2.69,1.81-4.58,4.48-5.39,7.59
		c0.76,1.01,1.45,1.99,2.08,2.95c0.99,1.51,1.82,2.95,2.48,4.32c0.74,1.54,1.23,3.01,1.51,4.38c0.25,1.13,0.35,2.2,0.34,3.22
		c1.92,1.06,4.1,1.63,6.35,1.63c2.62,0,5.15-0.77,7.32-2.24l2.52-1.69C356.28,468.92,356.18,467.99,356.02,467.06z"/>
</g>
<g>
	<path d="M320.08,484.45c-0.02-0.01-0.03-0.02-0.05-0.03c0.01,0.01,0.02,0.01,0.03,0.01S320.07,484.44,320.08,484.45z"/>
	<path d="M322.07,499.59c-2.13,2.67-5.27,4.08-8.4,4.08c-2.31,0-4.65-0.75-6.6-2.29c-0.63-0.49-1.37-1.12-2.21-1.86
		c0.32-0.85,0.56-1.76,0.67-2.74c-0.75-0.67-1.57-1.41-2.44-2.23c-0.81-0.74-1.66-1.55-2.56-2.4c-16.9-16.05-49.31-49.75-56.74-57.5
		c-1.51-1.58-2.32-3.65-2.27-5.83c0.05-2.18,0.94-4.21,2.52-5.72c1.53-1.48,3.52-2.28,5.64-2.28h0.17c2.19,0.05,4.22,0.94,5.74,2.53
		c14.88,15.51,41.95,43.38,55.92,56.68c0.87,0.84,1.69,1.62,2.45,2.32c2.03,1.89,3.65,3.33,4.75,4.2c0.01,0.01,0.03,0.02,0.04,0.03
		c1.23,0.74,2.7,1.15,4.28,1.24C325.05,491.47,324.81,496.12,322.07,499.59z"/>
	<path d="M326.77,491.46c-0.16-1.32-0.51-2.6-1.02-3.78c-0.93,0.14-1.85,0.19-2.72,0.14c-1.58-0.09-3.05-0.5-4.28-1.24
		c1.72,1.35,2.8,3.29,3.06,5.46c0.25,2.17-0.35,4.3-1.69,5.99c-1.59,1.99-3.95,3.14-6.45,3.14c-1.83,0-3.62-0.62-5.05-1.75
		c-0.83-0.66-1.87-1.55-3.09-2.64c-0.11,0.98-0.35,1.89-0.67,2.74c-0.32,0.83-0.71,1.6-1.16,2.31c0.68,0.58,1.29,1.09,1.82,1.51
		c2.3,1.82,5.2,2.83,8.15,2.83c2.46,0,4.82-0.68,6.87-1.94c0.09-0.05,0.18-0.1,0.26-0.16c1.21-0.78,2.31-1.77,3.23-2.93
		C326.21,498.39,327.18,494.95,326.77,491.46z M320.06,484.43c-0.01,0-0.02,0-0.03-0.01c0.02,0.01,0.03,0.02,0.05,0.03
		C320.07,484.44,320.07,484.43,320.06,484.43z"/>
</g>
<g>
	<path d="M279.34,521.01c-2.11,2.6-5.23,3.99-8.34,3.99c-2.33,0-4.69-0.77-6.66-2.33c-0.98-0.78-2.05-1.68-3.19-2.66
		c0.37-0.82,0.68-1.66,0.94-2.52c-0.68-0.59-1.37-1.21-2.09-1.86c-0.7-0.64-1.43-1.3-2.17-1.99
		c-16.13-14.95-40.49-40.99-45.96-46.88l-0.21-0.22c-1.48-1.6-2.24-3.69-2.15-5.87c0.1-2.18,1.03-4.2,2.63-5.67
		c1.57-1.44,3.56-2.14,5.54-2.14c2.21,0,4.41,0.88,6.02,2.62c6.1,6.65,29.8,31.87,44.92,45.92c0.87,0.8,1.71,1.56,2.51,2.29
		c1.86,1.68,3.54,3.13,4.99,4.28c0.23,0.18,0.45,0.37,0.65,0.58c0.02,0.02,0.04,0.04,0.06,0.06c1.03,0.86,2.46,1.54,4.15,1.96
		C282.26,513.98,281.77,517.96,279.34,521.01z"/>
	<path d="M283.74,511.01c-0.98-0.07-1.91-0.22-2.76-0.44c-1.69-0.42-3.12-1.1-4.15-1.96c2.85,2.89,3.16,7.57,0.57,10.83
		c-1.58,1.94-3.91,3.06-6.4,3.06c-1.84,0-3.65-0.63-5.09-1.78c-1.16-0.93-2.44-2.01-3.82-3.23c-0.26,0.86-0.57,1.7-0.94,2.52
		c-0.35,0.78-0.74,1.53-1.18,2.27c1,0.86,1.94,1.65,2.82,2.35c2.33,1.85,5.25,2.87,8.21,2.87c1.83,0,3.6-0.38,5.23-1.08
		c0.08-0.04,0.17-0.07,0.25-0.11c1.84-0.84,3.49-2.11,4.82-3.74C283.99,519.2,284.75,514.9,283.74,511.01z"/>
</g>
<g>
	<path d="M236.5,542.54c-2.11,2.49-5.14,3.79-8.17,3.79c-2.43,0-4.86-0.83-6.87-2.51c-2.13-1.8-4.52-3.94-7.09-6.31
		c1.09-0.24,1.99-0.55,2.73-0.89c-0.66-0.62-1.34-1.24-2.03-1.88c-0.71-0.67-1.42-1.34-2.15-2.03
		c-16.73-15.87-38.82-39.4-43.88-44.8c-3.07-3.3-2.89-8.49,0.4-11.56c1.51-1.43,3.48-2.2,5.55-2.2h0.27
		c2.19,0.07,4.22,0.99,5.72,2.59c5.22,5.59,28.85,30.74,45.15,45.97c0.86,0.8,1.69,1.57,2.5,2.32c1.79,1.62,3.46,3.1,4.98,4.38
		c0.09,0.07,0.17,0.15,0.25,0.23c0.05,0.04,0.1,0.08,0.15,0.13c1.39,1.24,2.9,2.15,4.52,2.71
		C239.58,535.83,238.94,539.64,236.5,542.54z"/>
	<path d="M241.25,533.1c-0.93-0.1-1.84-0.31-2.72-0.62c-1.62-0.56-3.13-1.47-4.52-2.71c3.07,2.95,3.36,7.85,0.59,11.15
		c-1.57,1.85-3.85,2.91-6.27,2.91c-1.93,0-3.75-0.66-5.25-1.92c-1.82-1.53-3.83-3.32-5.98-5.29c-0.74,0.34-1.64,0.65-2.73,0.89
		c-0.9,0.2-1.94,0.37-3.13,0.48c3.13,2.94,6.05,5.57,8.62,7.74c2.38,2,5.39,3.1,8.47,3.1h0.17c1.62-0.02,3.18-0.34,4.65-0.91
		c2.02-0.79,3.83-2.08,5.27-3.78C241.09,540.96,242,536.89,241.25,533.1z"/>
</g>
<g>
	<path d="M73.96,263.08c-14.06-13.33-66.97-20.91-111.8-23.56c-0.16-0.01-0.31-0.01-0.46-0.01c-2.16,0-4.1,0.75-5.63,2.2
		c-1.64,1.54-2.57,3.71-2.57,5.96v192c0,4.5,3.66,8.16,8.17,8.16h64c3.54,0,6.66-2.26,7.75-5.63c0.39-1.21,1.1-3.37,2.04-6.35
		c0.27-0.83,0.56-1.73,0.86-2.7c0.28-0.85,0.56-1.75,0.86-2.69c0.63,0.64,1.3,1.32,1.98,2.02c1.47-4.65,3.33-10.63,5.46-17.61
		c-0.74-0.72-1.42-1.35-2.03-1.9c0.26-0.86,0.53-1.74,0.8-2.63c0.26-0.85,0.51-1.71,0.78-2.58c8.64-28.7,20.28-69.82,27.12-104.26
		c0.17-0.84,0.33-1.67,0.49-2.5c0.17-0.84,0.33-1.67,0.48-2.5c1.07-5.69,2-11.17,2.74-16.33c0.12-0.85,0.24-1.68,0.35-2.5
		c0.11-0.85,0.22-1.68,0.32-2.5c0.32-2.59,0.59-5.08,0.8-7.47C76.68,267.19,75.77,264.77,73.96,263.08z M26.55,409.49
		c-1.19,3.9-2.29,7.47-3.28,10.66c-1.17,3.78-2.19,7.02-3.01,9.6l-0.55,1.75h-49.88V256.4l2.7,0.21c32.08,2.53,71,8.27,85.61,15.37
		l1.6,0.78l-0.21,1.77c-0.27,2.24-0.59,4.57-0.95,6.97c-0.66,4.42-1.46,9.09-2.38,13.94C49.2,332.43,35.48,380.08,26.55,409.49z"/>
	<path d="M44.62,414.87c-0.74-0.72-1.42-1.35-2.03-1.9c-2.06,6.79-3.91,12.72-5.41,17.49c0.63,0.64,1.3,1.32,1.98,2.02
		c0.64,0.66,1.3,1.34,1.98,2.04c1.47-4.63,3.35-10.64,5.5-17.68C45.92,416.13,45.25,415.47,44.62,414.87z"/>
</g>
<g>
	<path d="M452.33,260.83c-80.9,0-126.21,19.85-131.11,22.11c-2.1,0.99-3.69,2.84-4.34,5.06c-0.48,1.66-0.43,3.41,0.13,5.02
		c0.19,0.57,0.45,1.12,0.77,1.64c0.32,0.52,0.66,1.09,1.01,1.71c0.55,0.98,1.14,2.09,1.75,3.32c-1.12-0.42-2.29-0.86-3.5-1.31
		c2.55,4.67,5.86,11.96,9.63,20.97c1.23,0.45,2.29,0.83,3.14,1.13h0.01c0.42,1.02,0.84,2.05,1.28,3.11
		c0.39,0.96,0.78,1.94,1.19,2.94c11.91,29.53,27.01,71.74,37.38,102.64c0.28,0.83,0.56,1.64,0.83,2.45v0.01
		c0.28,0.83,0.55,1.65,0.82,2.46l-2.15,1.45c1.99,5.99,3.75,11.44,5.24,16.16l2.16-1.46c0.27,0.85,0.53,1.68,0.78,2.49
		c0.27,0.86,0.52,1.69,0.77,2.49c0.95,3.1,1.74,5.78,2.34,7.95c0.98,3.53,4.21,6,7.87,6h64c4.51,0,8.17-3.67,8.17-8.17V269
		C460.5,264.5,456.84,260.83,452.33,260.83z M444.17,452.83h-49.71l-0.54-1.76c-0.91-2.95-1.97-6.31-3.16-10.01
		c-1.02-3.18-2.14-6.62-3.35-10.26c-10.48-31.68-27.21-78.93-40.48-111.62c-0.49-1.21-0.98-2.41-1.45-3.58v-0.01
		c-1.61-3.88-3.15-7.51-4.61-10.86c-0.53-1.22-1.06-2.4-1.57-3.54c-0.65-1.44-1.28-2.82-1.89-4.12l-1.19-2.53l2.65-0.9
		c16.46-5.59,51.71-15.14,102.74-16.35l2.56-0.06V452.83z"/>
	<path d="M371.32,434.09l-2.15,1.45l-2.15,1.44c1.99,6.02,3.76,11.48,5.23,16.17l2.16-1.45l2.16-1.46
		C375.07,445.5,373.3,440.05,371.32,434.09z M320.54,299.69c-1.12-0.42-2.29-0.86-3.5-1.31c-1.18-0.45-2.41-0.91-3.67-1.39
		c0.04,0.1,0.1,0.2,0.16,0.29c2.47,3.98,5.93,11.36,9.98,20.93c1.16,0.42,2.21,0.8,3.16,1.14c1.23,0.45,2.29,0.83,3.14,1.13
		C326.29,311.95,323.12,304.78,320.54,299.69z"/>
</g>
</svg>
