<?xml version="1.0" encoding="iso-8859-1"?>
<!-- Generator: Adobe Illustrator 19.0.1, SVG Export Plug-In . SVG Version: 6.00 Build 0)  -->
<svg version="1.1" id="Capa_1" xmlns="http://www.w3.org/2000/svg" xmlns:xlink="http://www.w3.org/1999/xlink" x="0px" y="0px"
	 viewBox="-49 141 512 512" style="enable-background:new -49 141 512 512;" xml:space="preserve">
<path d="M379.372,231.546c-1.849-2.818-4.991-4.516-8.361-4.516H43.378c-3.363,0-6.5,1.69-8.35,4.499l-82.122,124.652
	c-0.391,0.539-0.73,1.121-1.013,1.743c-1.621,3.574-1.001,7.765,1.585,10.717l41.625,47.527c3.639,4.155,9.955,4.573,14.11,0.935
	c4.154-3.639,4.572-9.956,0.934-14.109l-27.097-30.941h134.501L185.137,602.8l-76.375-87.205c-3.638-4.155-9.956-4.572-14.11-0.935
	c-4.154,3.639-4.572,9.956-0.934,14.109l105.79,120.791c1.898,2.168,4.641,3.412,7.522,3.412c2.882,0,5.623-1.244,7.521-3.413
	l112.63-128.632c3.639-4.155,3.22-10.472-0.936-14.11c-4.156-3.639-10.473-3.22-14.11,0.936l-83.21,95.033l67.584-230.735h134.445
	L312.079,508.269c-3.639,4.155-3.22,10.472,0.936,14.109c1.897,1.662,4.245,2.477,6.583,2.477c2.782,0,5.55-1.155,7.526-3.413
	l133.399-152.802c2.959-3.379,3.302-8.315,0.839-12.07L379.372,231.546z M434.486,352.055H307.535l63.476-96.792L434.486,352.055z
	 M125.204,343.57l-63.311-96.541h126.623L125.204,343.57z M207.03,255.263l63.475,96.792H143.555L207.03,255.263z M225.545,247.029
	h126.952l-63.476,96.792L225.545,247.029z M43.358,255.234l63.495,96.821H-20.427L43.358,255.234z M207.03,606.403l-68.642-234.35
	h137.285L207.03,606.403z"/>
<path d="M118.188,478.016c0-5.522-4.478-9.999-9.999-9.999c-25.793,0-46.778-20.985-46.778-46.778c0-5.522-4.478-9.999-9.999-9.999
	s-9.999,4.477-9.999,9.999c0,25.793-20.985,46.778-46.778,46.778c-5.521,0-9.999,4.477-9.999,9.999s4.478,9.999,9.999,9.999
	c25.793,0,46.778,20.985,46.778,46.778c0,5.522,4.478,9.999,9.999,9.999s9.999-4.477,9.999-9.999
	c0-25.793,20.985-46.778,46.778-46.778C113.712,488.015,118.188,483.539,118.188,478.016z M51.412,499.677
	c-5.451-8.782-12.879-16.209-21.66-21.661c8.781-5.451,16.208-12.878,21.66-21.661c5.451,8.782,12.879,16.209,21.66,21.661
	C64.291,483.468,56.864,490.894,51.412,499.677z"/>
<path d="M373.009,201.021c16.54,0,29.997,13.457,29.997,29.997c0,5.522,4.478,9.999,9.999,9.999s9.999-4.477,9.999-9.999
	c0-16.54,13.457-29.997,29.997-29.997c5.521,0,9.999-4.477,9.999-9.999s-4.478-9.999-9.999-9.999
	c-16.54,0-29.997-13.457-29.997-29.997c0-5.522-4.478-9.999-9.999-9.999s-9.999,4.477-9.999,9.999
	c0,16.54-13.457,29.997-29.997,29.997c-5.521,0-9.999,4.477-9.999,9.999S367.488,201.021,373.009,201.021z M413.005,180.992
	c2.853,3.798,6.232,7.177,10.03,10.03c-3.798,2.853-7.178,6.232-10.03,10.03c-2.853-3.798-6.232-7.177-10.03-10.03
	C406.773,188.169,410.153,184.789,413.005,180.992z"/>
</svg>
