<?xml version="1.0" encoding="iso-8859-1"?>
<!-- Generator: Adobe Illustrator 19.0.1, SVG Export Plug-In . SVG Version: 6.00 Build 0)  -->
<svg version="1.1" id="Capa_1" xmlns="http://www.w3.org/2000/svg" xmlns:xlink="http://www.w3.org/1999/xlink" x="0px" y="0px"
	 viewBox="7 153 440 484" style="enable-background:new 7 153 440 484;" xml:space="preserve">
<path d="M255,549c0.026-7.918,0.96-15.807,2.784-23.512c1.78-7.67,4.44-15.109,7.928-22.168c0.344-0.704,0.656-1.416,1.016-2.112
	c1.064-2.032,2.216-4,3.408-5.96c0.376-0.616,0.744-1.248,1.136-1.856c1.296-2.032,2.661-4.013,4.096-5.944
	c0.296-0.408,0.6-0.8,0.904-1.216c1.6-2.091,3.261-4.117,4.984-6.08l0.24-0.264c11.428-12.754,25.792-22.532,41.848-28.488
	l1.408-0.52c2.16-0.76,4.352-1.432,6.568-2.056c1-0.28,2.016-0.536,3.032-0.8c1.872-0.464,3.752-0.896,5.656-1.256
	c1.6-0.296,3.264-0.52,4.904-0.744c1.448-0.208,2.88-0.44,4.344-0.576c3.2-0.304,6.456-0.496,9.744-0.496
	c2.168,0,4.304,0.168,6.4,0.312l1,0.072c0.064,0,0.136,0,0.2,0c10.1,0.759,20.036,2.982,29.496,6.6
	c4.117,1.604,8.754-0.433,10.358-4.55c0.36-0.924,0.545-1.906,0.546-2.898V181c0-4.418-3.582-8-8-8h-24v-8c0-4.418-3.582-8-8-8
	s-8,3.582-8,8v8h-16v-8c0-4.418-3.582-8-8-8s-8,3.582-8,8v8h-16v-8c0-4.418-3.582-8-8-8s-8,3.582-8,8v8h-16v-8c0-4.418-3.582-8-8-8
	s-8,3.582-8,8v8H151v-8c0-4.418-3.582-8-8-8s-8,3.582-8,8v8h-16v-8c0-4.418-3.582-8-8-8s-8,3.582-8,8v8H87v-8c0-4.418-3.582-8-8-8
	c-4.418,0-8,3.582-8,8v8H55v-8c0-4.418-3.582-8-8-8s-8,3.582-8,8v8H15c-4.418,0-8,3.582-8,8v376c0,4.418,3.582,8,8,8h232.4
	c4.418,0.011,8.009-3.562,8.02-7.98c0-0.193-0.006-0.387-0.02-0.58l-0.064-0.928C255.16,553.352,255,551.192,255,549z
	 M254.6,490.048c-1.152,2.024-2.192,4.112-3.2,6.208c-0.568,1.152-1.144,2.296-1.672,3.472c-0.872,1.928-1.688,3.896-2.456,5.88
	c-0.08,0.2-0.168,0.384-0.248,0.584V469h22.808c-5.453,6.065-10.277,12.667-14.4,19.704
	C255.152,489.16,254.856,489.592,254.6,490.048z M347.912,429.56c-1.6,0.144-3.096,0.392-4.648,0.592
	c-1.96,0.264-3.912,0.536-5.84,0.896s-4.048,0.8-6.048,1.288c-1.224,0.296-2.448,0.608-3.664,0.944c-2.4,0.656-4.8,1.368-7.2,2.168
	c-0.304,0.112-0.6,0.232-0.904,0.336c-2.912,1.016-5.792,2.08-8.592,3.304V405h48v24C355.272,429,351.576,429.216,347.912,429.56z
	 M359,389h-48v-48h48V389z M295,389h-48v-48h48V389z M231,389h-48v-48h48V389z M167,389h-48v-48h48V389z M167,405v48h-48v-48H167z
	 M183,405h48v48h-48V405z M247,405h48v42.672c-2.752,1.744-5.408,3.6-8,5.552V453h-40V405z M359,325h-48v-48h48V325z M295,325h-48
	v-48h48V325z M231,325h-48v-48h48V325z M167,325h-48v-48h48V325z M103,325H55v-48h48V325z M55,341h48v48H55V341z M55,405h48v48H55
	V405z M55,469h48v48H55V469z M119,469h48v48h-48V469z M183,469h48v48h-48V469z M23,189h16v8c0,4.418,3.582,8,8,8s8-3.582,8-8v-8h16
	v8c0,4.418,3.582,8,8,8c4.418,0,8-3.582,8-8v-8h16v8c0,4.418,3.582,8,8,8s8-3.582,8-8v-8h16v8c0,4.418,3.582,8,8,8s8-3.582,8-8v-8
	h112v8c0,4.418,3.582,8,8,8s8-3.582,8-8v-8h16v8c0,4.418,3.582,8,8,8s8-3.582,8-8v-8h16v8c0,4.418,3.582,8,8,8s8-3.582,8-8v-8h16v8
	c0,4.418,3.582,8,8,8s8-3.582,8-8v-8h16v40H23V189z M23,549V245h368v188.416c-5.251-1.472-10.597-2.582-16-3.32V269
	c0-4.418-3.582-8-8-8H47c-4.418,0-8,3.582-8,8v256c0,4.418,3.582,8,8,8h193.192c-0.754,5.301-1.152,10.646-1.192,16H23z"/>
<path d="M359,461c-48.601,0-88,39.399-88,88s39.399,88,88,88s88-39.399,88-88C446.943,500.423,407.577,461.057,359,461z M359,621
	c-39.764,0-72-32.235-72-72s32.236-72,72-72s72,32.236,72,72C430.956,588.746,398.746,620.956,359,621z"/>
<path d="M393.344,503.344L359,537.688l-18.344-18.344c-3.178-3.07-8.242-2.982-11.312,0.196c-2.995,3.1-2.995,8.016,0,11.116l24,24
	c3.124,3.123,8.188,3.123,11.312,0l40-40c3.07-3.178,2.982-8.242-0.196-11.312C401.36,500.349,396.444,500.349,393.344,503.344z"/>
</svg>
