<?xml version="1.0" encoding="iso-8859-1"?>
<!-- Generator: Adobe Illustrator 19.0.1, SVG Export Plug-In . SVG Version: 6.00 Build 0)  -->
<svg version="1.1" id="&#x421;&#x43B;&#x43E;&#x439;_1"
	 xmlns="http://www.w3.org/2000/svg" xmlns:xlink="http://www.w3.org/1999/xlink" x="0px" y="0px" viewBox="0 0 409.602 409.602"
	 style="enable-background:new 0 0 409.602 409.602;" xml:space="preserve">
<g>
	<path d="M376.918,274.52H347.5c-3.609,0-6.535,2.925-6.535,6.535c0,3.609,2.926,6.535,6.535,6.535h22.883v108.937h-55.774V303.82
		c0-3.613-2.929-6.539-6.539-6.539c-3.609,0-6.535,2.926-6.535,6.539v92.707h-55.773V343.57c0-3.609-2.93-6.535-6.539-6.535
		c-3.61,0-6.535,2.926-6.535,6.535v52.957H176.91v-13.211c0-3.609-2.926-6.535-6.535-6.535s-6.535,2.926-6.535,6.535v13.211h-35.313
		c3.297-4.379,5.508-9.613,6.262-15.304l234.449-135.36c7.535-4.351,12.934-11.402,15.2-19.851
		c2.261-8.453,1.117-17.258-3.235-24.793l-34.859-60.379c-4.352-7.535-11.403-12.93-19.856-15.195
		c-8.449-2.266-17.254-1.118-24.789,3.234l-25.476,14.711c-3.125,1.805-4.196,5.801-2.391,8.93c1.805,3.125,5.801,4.195,8.926,2.39
		l19.816-11.441l54.469,94.34l-48.305,27.89l-46.351-80.293c-1.809-3.125-5.805-4.195-8.93-2.39
		c-3.129,1.804-4.199,5.804-2.395,8.929l46.356,80.289l-48.301,27.887l-26.48-45.859c-1.805-3.129-5.801-4.196-8.93-2.395
		c-3.125,1.805-4.195,5.805-2.391,8.93l26.477,45.863l-48.301,27.887l-6.605-11.438c-1.805-3.129-5.801-4.195-8.93-2.39
		c-3.125,1.804-4.195,5.801-2.391,8.926l6.606,11.441l-43.094,24.879v-5.805l42.367-73.383c0.004-0.007,34.426-59.625,34.426-59.625
		c0.004-0.004,34.426-59.625,34.426-59.625l34.426-59.625c9.007-15.605,3.64-35.632-11.965-44.644l-60.379-34.86
		c-7.535-4.347-16.336-5.5-24.789-3.234c-8.453,2.266-15.504,7.664-19.852,15.199L149.027,65.84
		c-1.804,3.125-0.734,7.121,2.395,8.926c3.121,1.804,7.121,0.734,8.926-2.391l11.441-19.816l94.34,54.468l-27.887,48.305
		l-80.289-46.355c-3.129-1.805-7.125-0.735-8.93,2.39c-1.804,3.125-0.734,7.125,2.391,8.93l80.293,46.355l-27.891,48.301
		l-45.859-26.476c-3.129-1.805-7.125-0.735-8.93,2.39c-1.804,3.125-0.734,7.125,2.391,8.93l45.863,26.476l-27.886,48.305
		l-11.442-6.605c-3.125-1.805-7.121-0.735-8.926,2.39c-1.804,3.129-0.734,7.125,2.391,8.93l11.437,6.605l-27.781,48.118V32.68
		C135.082,14.66,120.422,0,102.398,0H32.68C14.66,0,0,14.66,0,32.68v344.238c0,18.023,14.66,32.684,32.68,32.684h344.238
		c18.023,0,32.684-14.661,32.684-32.684v-69.719C409.602,289.18,394.941,274.52,376.918,274.52L376.918,274.52z M314.473,137.926
		c2.828-0.516,5.761-0.426,8.636,0.344c5.079,1.363,9.309,4.593,11.914,9.105l34.86,60.379c2.605,4.512,3.289,9.793,1.929,14.871
		c-0.773,2.875-2.16,5.461-4.019,7.652L314.473,137.926z M179.324,41.809c2.188-1.86,4.778-3.247,7.649-4.02
		c5.082-1.359,10.363-0.676,14.871,1.93l60.379,34.859c7.382,4.262,10.941,12.625,9.472,20.563L179.324,41.809z M122.008,376.918
		c0,10.812-8.797,19.609-19.61,19.609H32.68c-10.813,0-19.61-8.797-19.61-19.609V32.68c0-10.813,8.797-19.61,19.61-19.61h69.718
		c10.813,0,19.61,8.797,19.61,19.61V376.918z M396.527,376.918c0,8.523-5.465,15.789-13.07,18.484V288.715
		c7.605,2.699,13.07,9.965,13.07,18.484V376.918z M396.527,376.918"/>
	<path d="M67.539,318.098c-13.215,0-23.969,10.75-23.969,23.964c0,13.215,10.754,23.965,23.969,23.965s23.965-10.75,23.965-23.965
		C91.504,328.848,80.754,318.098,67.539,318.098L67.539,318.098z M67.539,352.957c-6.008,0-10.894-4.887-10.894-10.895
		c0-6.007,4.886-10.894,10.894-10.894c6.004,0,10.891,4.887,10.891,10.894C78.43,348.07,73.543,352.957,67.539,352.957
		L67.539,352.957z M67.539,352.957"/>
</g>
</svg>
