<?xml version="1.0" encoding="iso-8859-1"?>
<!-- Generator: Adobe Illustrator 19.0.1, SVG Export Plug-In . SVG Version: 6.00 Build 0)  -->
<svg version="1.1" id="Capa_1" xmlns="http://www.w3.org/2000/svg" xmlns:xlink="http://www.w3.org/1999/xlink" x="0px" y="0px"
	 viewBox="-49 141 512 512" style="enable-background:new -49 141 512 512;" xml:space="preserve">
<path d="M373.934,432.757c-10.79-10.79-25.135-16.732-40.395-16.732s-29.604,5.942-40.394,16.732l-25.211,25.21
	c-0.001,0.001-0.002,0.002-0.003,0.003s-0.002,0.002-0.003,0.003l-10.071,10.07L135.854,346.04l35.287-35.286
	c22.273-22.274,22.273-58.516,0-80.79l-72.233-72.232c-22.273-22.271-58.515-22.271-80.789,0l-19.053,19.052
	c-64.037,64.038-64.037,168.235,0,232.273l125.528,125.528c3.905,3.904,10.237,3.904,14.143,0c3.905-3.905,3.905-10.237,0-14.143
	L13.209,394.914c-51.756-51.755-55.879-133.38-12.374-189.899l129.799,129.8c1.953,1.952,4.512,2.929,7.071,2.929
	s5.119-0.977,7.071-2.929c3.905-3.905,3.906-10.237,0-14.143L14.12,190.015l18.141-18.141c14.476-14.474,38.029-14.476,52.505,0
	l72.232,72.232c14.476,14.476,14.476,38.029,0,52.505l-42.358,42.357c-1.875,1.876-2.929,4.419-2.929,7.071s1.054,5.195,2.929,7.071
	l136.146,136.146c3.906,3.906,10.238,3.905,14.142,0l10.074-10.073l123.95,123.95C373.861,622.501,343.259,633,311.04,633
	c-38.528,0-74.75-15.004-101.994-42.248L137.794,519.5c-3.904-3.904-10.237-3.904-14.142,0c-3.905,3.905-3.905,10.237,0,14.143
	l71.252,71.252C225.925,635.916,267.17,653,311.04,653c43.871,0,85.116-17.084,116.137-48.105l19.052-19.053
	c10.79-10.789,16.732-25.135,16.732-40.395c0-15.259-5.942-29.604-16.732-40.395L373.934,432.757z M432.087,571.699l-18.142,18.142
	l-124.8-124.8l18.142-18.142c7.012-7.013,16.335-10.875,26.252-10.875s19.24,3.862,26.252,10.875l72.295,72.296
	c7.013,7.012,10.875,16.336,10.875,26.252C442.961,555.364,439.1,564.688,432.087,571.699z"/>
<path style="display:none;" d="M340.398,181.084c-9.726-0.661-18.991,2.61-26.091,9.238c-7.001,6.535-11.017,15.774-11.017,25.35
	c0,5.522,4.477,10,10,10s10-4.478,10-10c0-4.111,1.656-7.922,4.664-10.729c3.003-2.804,6.929-4.187,11.069-3.905
	c7.239,0.498,13.074,6.334,13.572,13.573c0.505,7.319-4.293,13.787-11.406,15.379c-7.789,1.74-13.229,8.512-13.229,16.465v18.012
	c0,5.522,4.477,10,10,10s10-4.478,10-10V248.88c15.494-4.622,25.719-19.229,24.587-35.645
	C371.367,196.087,357.545,182.266,340.398,181.084z"/>
<path style="display:none;" d="M337.961,290.06c-2.63,0-5.21,1.061-7.07,2.92c-1.86,1.87-2.93,4.44-2.93,7.08
	c0,2.63,1.07,5.21,2.93,7.07s4.44,2.93,7.07,2.93s5.21-1.069,7.07-2.93s2.93-4.44,2.93-7.07c0-2.64-1.07-5.21-2.93-7.08
	C343.171,291.12,340.591,290.06,337.961,290.06z"/>
<path d="M412.961,141h-150c-27.57,0-50,22.43-50,50v113.973c0,27.57,22.43,50,50,50h37.925l29.273,38.118
	c1.893,2.465,4.824,3.909,7.931,3.909c0.006,0,0.012,0,0.018,0c3.114-0.006,6.047-1.462,7.935-3.938l29.032-38.089h37.885
	c27.57,0,50-22.43,50-50V191C462.961,163.43,440.532,141,412.961,141z M442.961,304.973c0,16.542-13.458,30-30,30h-42.836
	c-3.12,0-6.062,1.456-7.953,3.938l-24.11,31.632l-24.314-31.661c-1.893-2.465-4.824-3.909-7.931-3.909h-42.854
	c-16.542,0-30-13.458-30-30V191c0-16.542,13.458-30,30-30h150c16.542,0,30,13.458,30,30v113.973H442.961z"/>
<g>
	<path d="M362.489,304.655c-1.221,0-3.113-0.207-5.676-0.623c-2.564-0.414-4.407-0.623-5.53-0.623l-21.533-0.073
		c-1.856,0-4.663,0.232-8.423,0.696c-3.761,0.465-6.592,0.696-8.496,0.696c-0.538,0-1.318-0.099-2.344-0.293
		s-1.807-0.293-2.344-0.293c-4.395,0-7.373-1.782-8.936-5.347c-0.978-2.245-1.465-5.713-1.465-10.4
		c0-9.13,2.025-16.772,6.079-22.925c3.124-4.735,8.178-9.472,15.161-14.209c6.592-4.345,13.158-8.667,19.702-12.964
		c7.715-5.614,11.572-11.986,11.572-19.116c0-1.855-1.538-3.699-4.614-5.53s-6.079-2.747-9.009-2.747
		c-5.176,0-10.657,2.307-16.442,6.921c-5.787,4.614-9.754,6.921-11.902,6.921c-2.589,0-4.859-0.634-6.812-1.904
		c-2.442-1.562-3.662-3.735-3.662-6.519c0-2.978,1.22-5.541,3.662-7.69c5.907-5.224,11.06-9.033,15.454-11.426
		c6.347-3.466,12.915-5.2,19.702-5.2c8.447,0,16.064,2.223,22.852,6.665c7.764,5.079,11.646,11.719,11.646,19.922
		c0,8.302-1.904,15.357-5.713,21.167c-2.979,4.64-7.69,9.155-14.136,13.55c-6.104,3.858-12.207,7.69-18.311,11.499
		c-9.277,6.055-14.258,12.964-14.941,20.728c2.685-0.341,6.64-0.732,11.865-1.172c10.4-0.537,17.846-0.806,22.339-0.806
		c4.199,0,8.35,0.904,12.451,2.71c5.078,2.247,7.617,5.127,7.617,8.643c0,2.54-0.904,4.761-2.71,6.665
		C367.689,303.63,365.32,304.655,362.489,304.655z"/>
</g>
</svg>
