<?xml version="1.0" encoding="iso-8859-1"?>
<!-- Generator: Adobe Illustrator 19.0.1, SVG Export Plug-In . SVG Version: 6.00 Build 0)  -->
<svg version="1.1" id="&#x421;&#x43B;&#x43E;&#x439;_1"
	 xmlns="http://www.w3.org/2000/svg" xmlns:xlink="http://www.w3.org/1999/xlink" x="0px" y="0px" viewBox="0 0 180.507 147.317"
	 style="enable-background:new 0 0 180.507 147.317;" xml:space="preserve">
<g>
	<g>
		<path d="M2.333,129.809C0.739,134.265,0,139.413,0,144.521v2.796h123.753v-2.796c0-5.108-0.857-10.019-2.312-14.712h59.066v-2.796
			h-0.028c0-17.923-12.815-33.239-30.71-39.113c2.824-3.429,5.016-7.433,6.422-11.277c2.438-1.454,4.335-4.089,5.101-7.138
			c0.688-2.768,2.227-8.859-1.04-12.183v-2.719c0.133-4.693,0.492-16.876-9.632-22.145c-0.274-0.991-0.33-1.757-0.358-1.925
			l-1.293-13.005l-9.331,8.81c-1.096,0.85-7.328,2.361-13.173,2.965l-2.389,0.351c-17.867,2.831-17.593,13.124-17.34,21.436
			c0.028,1.047,0.049,2.171,0.049,3.429l0.084,2.445c-1.813,1.974-3.07,5.628-1.426,12.408c0.766,3.014,2.719,5.621,5.107,6.913
			c1.096,2.824,3.26,7.49,6.668,11.663c-7.574,2.501-14.22,6.668-19.377,12.021c-4.806-3.07-10.124-5.515-15.836-7.3
			c4.229-4.778,7.412-10.651,9.443-16.215c3.155-1.757,5.656-5.164,6.667-9.141c0.907-3.625,2.909-11.614-1.426-15.618v-4.117
			c0.274-9.633-0.766-22.968-12.759-28.925c-0.499-1.672-0.576-2.965-0.604-3.127L81.816,0L70.673,10.482
			c-1.349,1.209-9.857,3.344-18.063,4.173l-3.211,0.52c-23.08,3.618-22.721,16.384-22.391,28.159
			c0.028,1.286,0.056,2.607,0.056,4.117l0.105,3.646c-2.361,2.389-4.117,6.998-1.918,15.97c0.991,3.955,3.569,7.328,6.639,8.867
			c1.539,3.928,4.693,10.869,9.829,16.743c-5.712,1.756-11.158,3.98-15.808,7.272C17.564,105.216,5.712,118.049,2.333,129.809z
			 M158.221,124.209v-7.876c0-1.539-1.265-2.796-2.803-2.796c-1.56,0-2.824,1.258-2.824,2.796v7.876h-33.288
			c-1.377-3.042-3.077-5.951-5.024-8.726c-0.302-0.436-0.576-0.878-0.878-1.286c-3.077-4.096-6.752-7.77-10.897-10.981
			c2.606-2.607,5.628-4.883,9-6.724l19.925,22.644c0.548,0.604,1.321,0.955,2.115,0.955c0.906-0.049,1.616-0.351,2.143-0.984
			l19.539-22.806c10.925,5.894,18.471,16.11,19.539,27.906H158.221z M9.553,126.471c0.415-0.906,0.627-1.383,1.098-2.261
			c1.208-2.333,2.663-4.553,4.25-6.696c2.803-3.731,6.176-7.11,10.019-10.047c0.745-0.576,1.454-1.152,2.248-1.7
			c0.745-0.52,1.567-1.012,2.361-1.482c1.019-0.625,2.03-1.229,3.077-1.785l27.197,30.851c0.52,0.604,1.293,0.934,2.087,0.934h0.028
			c0.822,0,1.588-0.358,2.115-0.962l26.593-31.068c1.23,0.633,2.41,1.293,3.59,2.03c0.801,0.471,1.595,0.962,2.361,1.482
			c0.801,0.548,1.511,1.124,2.255,1.7c3.843,2.937,7.187,6.316,10.012,10.047c1.595,2.143,3.021,4.363,4.229,6.696
			c0.464,0.878,0.878,1.785,1.293,2.691c0,0.056-0.028,0.084-0.028,0.112h0.077c0.415,0.934,0.773,1.862,1.103,2.824
			c1.342,3.787,2.248,7.77,2.522,11.881l0,0H93.942v-11.494c0-0.14-0.049-0.246-0.077-0.386c-0.197-1.342-1.321-2.417-2.719-2.417
			c-1.398,0-2.522,1.075-2.719,2.417c-0.028,0.141-0.105,0.246-0.105,0.386v11.494H35.403v-11.494c0-0.14-0.056-0.246-0.077-0.386
			c-0.225-1.342-1.321-2.417-2.747-2.417c-1.398,0-2.522,1.075-2.719,2.417c-0.028,0.141-0.084,0.246-0.084,0.386v11.494H5.712
			c0.246-4.11,1.152-8.094,2.522-11.881c0.33-0.962,0.688-1.89,1.068-2.824L9.553,126.471z M12.738,61.117 M36.225,71.516
			l-1.342-0.379c-1.51-0.471-3.485-2.501-4.201-5.382c-1.398-5.712-1.068-9.717,0.878-11.003l1.293-0.857l-0.19-6.527
			c0-1.454-0.028-2.852-0.084-4.665c-0.302-11.087-0.52-19.103,17.677-21.955l3.042-0.499c0.169-0.021,17.129-1.777,21.19-5.649
			l2.852-2.663l0.387,4.033c0.028,0.464,0.246,2.937,1.286,5.712l0.443,1.096l1.068,0.492c9.773,4.229,10.813,14.571,10.51,24.232
			v7.223l1.455,0.822c1.595,0.906,1.651,4.391,0.14,10.399c-0.688,2.719-2.473,5.051-4.56,5.901l-1.18,0.492l-0.407,1.208
			c-2.087,6.148-5.789,12.822-10.785,17.536c-0.906,0.857-1.841,1.623-2.832,2.311c-1.286,0.928-2.691,1.7-4.117,2.304
			c-1.7,0.71-3.485,1.152-5.375,1.314c-0.52,0.056-0.991,0.197-1.539,0.197c-0.738,0-1.455-0.084-2.171-0.169
			c-1.757-0.218-3.401-0.661-4.967-1.314c-1.426-0.632-2.768-1.405-4.033-2.312c-0.984-0.71-1.918-1.454-2.796-2.304
			c-6.26-5.951-9.885-14.656-11.171-18.218L36.225,71.516z M67.792,120.289l-3.569-14.052l4.967-4.258l-0.33-0.302
			c3.049-0.956,5.874-2.522,8.424-4.525c2.775,0.681,5.438,1.588,8.045,2.635L67.792,120.289z M54.394,101.572l-0.492,0.407
			l4.967,4.258l-3.457,13.637l-17.508-19.869c2.712-1.124,5.543-2.087,8.48-2.852C48.745,99.043,51.436,100.582,54.394,101.572
			L54.394,101.572z M114.914,71.902l-1.349-0.415c-0.935-0.302-2.192-1.672-2.663-3.513c-1.096-4.581-0.548-6.857,0.358-7.462
			l1.321-0.85l-0.169-5.269c0-1.208-0.028-2.389-0.084-3.513c-0.218-8.206-0.351-13.644,12.625-15.675l2.227-0.351
			c0.134-0.028,12.977-1.321,16.272-4.391l1.047-1.019l0.162,1.567c0.028,0.52,0.218,2.36,0.991,4.44l0.436,1.103l1.096,0.492
			c5.494,2.361,7.714,7.574,7.412,17.452v5.824l1.455,0.794c0.302,0.19,1.208,1.209-0.246,6.998
			c-0.435,1.812-1.616,3.344-2.965,3.927l-1.18,0.464l-0.408,1.237c-1.482,4.391-4.089,9.134-7.602,12.541
			c-0.934,0.907-1.925,1.7-2.965,2.361c-2.03,1.314-4.314,2.164-6.78,2.22l0.056,0.056c-0.084,0-0.141-0.028-0.225-0.028
			c-0.077,0-0.133,0-0.218,0c-0.084,0-0.133,0-0.218,0c-0.19,0-0.386-0.084-0.576-0.084c-2.445-0.162-4.609-0.927-6.534-2.164
			c-1.04-0.688-2.002-1.482-2.909-2.361c-4.391-4.335-6.969-10.511-7.904-13.089L114.914,71.902z M137.72,108.05l-2.445-9.639
			l2.965-2.55c2.522-0.709,4.855-1.918,6.942-3.513c1.595,0.443,3.161,0.934,4.665,1.539L137.72,108.05z M128.221,95.755
			l3.077,2.656l-2.361,9.358l-12.134-13.75c1.623-0.625,3.267-1.202,4.967-1.616C123.668,93.858,125.804,95.038,128.221,95.755
			L128.221,95.755z M128.221,95.755"/>
	</g>
</g>
</svg>
