<?xml version="1.0" encoding="iso-8859-1"?>
<!-- Generator: Adobe Illustrator 19.0.1, SVG Export Plug-In . SVG Version: 6.00 Build 0)  -->
<svg version="1.1" id="Capa_1" xmlns="http://www.w3.org/2000/svg" xmlns:xlink="http://www.w3.org/1999/xlink" x="0px" y="0px"
	 viewBox="-49 141 512 512" style="enable-background:new -49 141 512 512;" xml:space="preserve">
<g>
	<path d="M461,173v362.67c0,16.54-13.46,30-30,30h-19.33v-17.34H431c6.98,0,12.67-5.68,12.67-12.66V173
		c0-6.98-5.69-12.67-12.67-12.67H-17c-6.98,0-12.67,5.69-12.67,12.67v362.67c0,6.98,5.69,12.66,12.67,12.66h254v17.34H-17
		c-16.54,0-30-13.46-30-30V173c0-16.54,13.46-30,30-30h448C447.54,143,461,156.46,461,173z"/>
</g>
<g>
	<path d="M407.67,258.33v94h-17.34v-85.9l-1.66-0.29c-25.96-4.43-46.38-24.85-50.81-50.81l-0.29-1.66H76.43l-0.29,1.66
		c-4.43,25.96-24.85,46.38-50.81,50.81l-1.66,0.29v175.81l1.66,0.28c25.96,4.44,46.38,24.86,50.81,50.82l0.29,1.66H205v17.33H68.33
		c-4.78,0-8.66-3.88-8.66-8.66C59.67,479.04,39.63,459,15,459c-4.78,0-8.67-3.89-8.67-8.67v-192c0-4.78,3.89-8.66,8.67-8.66
		c24.63,0,44.67-20.04,44.67-44.67c0-4.78,3.88-8.67,8.66-8.67h277.34c4.78,0,8.66,3.89,8.66,8.67c0,24.63,20.04,44.67,44.67,44.67
		C403.78,249.67,407.67,253.55,407.67,258.33z"/>
</g>
<path d="M324.33,367c-51.83,0-94,42.17-94,94c0,26.13,10.72,49.81,28,66.87c0.65,0.65,1.32,1.29,2,1.91c0.66,0.63,1.32,1.23,2,1.81
	c5.29,4.66,11.11,8.73,17.34,12.11c0.66,0.36,1.33,0.71,2,1.05c0.66,0.34,1.33,0.67,2,0.99c12.31,5.93,26.11,9.26,40.66,9.26
	c14.56-0.02,28.36-3.36,40.67-9.32c0.67-0.32,1.34-0.65,2-0.99c0.67-0.35,1.34-0.7,2-1.06c6.23-3.39,12.05-7.47,17.33-12.13
	c0.68-0.59,1.35-1.19,2-1.81c0.68-0.63,1.35-1.27,2-1.92c17.25-17.04,27.97-40.69,28-66.77C418.33,409.17,376.17,367,324.33,367z
	 M369.39,523c-1.43,1.04-2.89,2.03-4.39,2.96c-11.79,7.42-25.74,11.71-40.67,11.71c-14.92,0-28.87-4.29-40.66-11.71
	c-1.5-0.93-2.96-1.92-4.39-2.96c-19.15-13.96-31.61-36.55-31.61-62c0-42.27,34.39-76.67,76.66-76.67
	c21.11,0.03,40.27,8.63,54.15,22.52c13.88,13.88,22.5,33.03,22.52,54.15C401,486.45,388.54,509.04,369.39,523z"/>
<g>
	<path d="M386.33,527v115.33c0,2.39-0.97,4.56-2.54,6.13s-3.73,2.54-6.12,2.54h-0.01c-1.96,0-3.88-0.67-5.41-1.9l-47.92-38.33
		l-47.91,38.33c-3.73,2.99-9.2,2.38-12.18-1.35c-1.23-1.53-1.91-3.45-1.91-5.42V527h17.34v97.3l39.25-31.4
		c3.19-2.56,7.64-2.56,10.83,0L369,624.3V527H386.33z"/>
</g>
<g>
	<path d="M313.67,249.67H100.33c-4.78,0-8.66,3.88-8.66,8.66V301c0,4.78,3.88,8.67,8.66,8.67h213.34c4.78,0,8.66-3.89,8.66-8.67
		v-42.67C322.33,253.55,318.45,249.67,313.67,249.67z M305,292.33H109V267h196V292.33z"/>
</g>
<g>
	<rect x="81" y="345.67" width="17.33" height="17.33"/>
</g>
<g>
	<rect x="123.67" y="345.67" width="17.33" height="17.33"/>
</g>
<g>
	<rect x="81" y="388.33" width="124" height="17.34"/>
</g>
<g>
	<path d="M324.33,409.67c-28.3,0-51.33,23.03-51.33,51.33s23.03,51.33,51.33,51.33c28.27-0.03,51.3-23.06,51.34-51.33
		C375.67,432.7,352.64,409.67,324.33,409.67z M324.33,495c-18.75,0-34-15.25-34-34s15.25-34,34-34s34,15.25,34,34
		S343.08,495,324.33,495z"/>
</g>
<g>
	<rect x="6.33" y="495" width="17.34" height="17.33"/>
</g>
<g>
	<rect x="390.33" y="196.33" width="17.34" height="17.34"/>
</g>
<g>
	<rect x="6.33" y="196.33" width="17.34" height="17.34"/>
</g>
</svg>
