<?xml version="1.0" encoding="iso-8859-1"?>
<!-- Generator: Adobe Illustrator 19.0.1, SVG Export Plug-In . SVG Version: 6.00 Build 0)  -->
<svg version="1.1" id="Capa_1" xmlns="http://www.w3.org/2000/svg" xmlns:xlink="http://www.w3.org/1999/xlink" x="0px" y="0px"
	 viewBox="-49 141 512 512" style="enable-background:new -49 141 512 512;" xml:space="preserve">
<path d="M413,185h-47.667v-14c0-16.542-13.458-30-30-30s-30,13.458-30,30v14h-168v-14c0-16.542-13.458-30-30-30s-30,13.458-30,30
	v14.37c-0.85-0.235-1.741-0.37-2.666-0.37H34.823c-27.57,0-50,22.43-50,50v170.333c0,5.523,4.478,10,10,10s10-4.477,10-10V288
	H451.79c5.522,0,10-4.477,10-10s-4.478-10-10-10H4.823v-33c0-16.542,13.458-30,30-30h39.844c0.925,0,1.816-0.136,2.666-0.37v12.87
	c0,16.542,13.458,30,30,30s30-13.458,30-30V205h168v12.5c0,16.542,13.458,30,30,30s30-13.458,30-30V205H413
	c16.542,0,30,13.458,30,30v379.994c0,9.928-8.077,18.006-18.006,18.006s-18.006-8.078-18.006-18.006v-25.869c0-5.523-4.478-10-10-10
	H194.21c-5.522,0-10,4.477-10,10s4.478,10,10,10h192.778v15.869c0,6.511,1.648,12.643,4.545,18.006H-11c-9.925,0-18-8.075-18-18
	v-15.875h223.825c5.522,0,10-4.477,10-10s-4.478-10-10-10H94.909c17.474-15.049,28.57-37.309,28.57-62.125c0-45.215-36.785-82-82-82
	s-82,36.785-82,82c0,24.816,11.096,47.076,28.57,62.125H-39c-5.522,0-10,4.477-10,10V615c0,20.953,17.047,38,38,38h435.994
	C445.95,653,463,635.951,463,614.994V235C463,207.43,440.57,185,413,185z M117.333,217.5c0,5.514-4.486,10-10,10s-10-4.486-10-10
	V171c0-5.514,4.486-10,10-10s10,4.486,10,10V217.5z M345.333,217.5c0,5.514-4.486,10-10,10s-10-4.486-10-10V171
	c0-5.514,4.486-10,10-10s10,4.486,10,10V217.5z M-20.521,517c0-34.187,27.813-62,62-62s62,27.813,62,62s-27.813,62-62,62
	S-20.521,551.187-20.521,517z"/>
<path d="M177.245,521c20.953,0,38-17.047,38-38s-17.047-38-38-38s-38,17.047-38,38S156.292,521,177.245,521z M177.245,465
	c9.925,0,18,8.075,18,18s-8.075,18-18,18s-18-8.075-18-18S167.32,465,177.245,465z"/>
<path d="M270.578,521c20.953,0,38-17.047,38-38s-17.047-38-38-38s-38,17.047-38,38S249.625,521,270.578,521z M270.578,465
	c9.925,0,18,8.075,18,18s-8.075,18-18,18s-18-8.075-18-18S260.653,465,270.578,465z"/>
<path d="M363.912,521c20.953,0,38-17.047,38-38s-17.047-38-38-38s-38,17.047-38,38S342.959,521,363.912,521z M363.912,465
	c9.925,0,18,8.075,18,18s-8.075,18-18,18s-18-8.075-18-18S353.987,465,363.912,465z"/>
<path d="M121.912,379c0-20.953-17.047-38-38-38s-38,17.047-38,38s17.047,38,38,38S121.912,399.953,121.912,379z M65.912,379
	c0-9.925,8.075-18,18-18s18,8.075,18,18s-8.075,18-18,18S65.912,388.925,65.912,379z"/>
<path d="M270.578,417c20.953,0,38-17.047,38-38s-17.047-38-38-38s-38,17.047-38,38S249.625,417,270.578,417z M270.578,361
	c9.925,0,18,8.075,18,18s-8.075,18-18,18s-18-8.075-18-18S260.653,361,270.578,361z"/>
<path d="M363.912,417c20.953,0,38-17.047,38-38s-17.047-38-38-38s-38,17.047-38,38S342.959,417,363.912,417z M363.912,361
	c9.925,0,18,8.075,18,18s-8.075,18-18,18s-18-8.075-18-18S353.987,361,363.912,361z"/>
<path d="M177.245,417c20.953,0,38-17.047,38-38s-17.047-38-38-38s-38,17.047-38,38S156.292,417,177.245,417z M177.245,361
	c9.925,0,18,8.075,18,18s-8.075,18-18,18s-18-8.075-18-18S167.32,361,177.245,361z"/>
<path d="M23.324,546.409c1.876,1.875,4.419,2.929,7.071,2.929s5.195-1.054,7.071-2.929l39.638-39.638
	c3.905-3.905,3.905-10.237,0-14.142c-3.906-3.905-10.236-3.905-14.143,0l-32.566,32.567l-11.129-11.129
	c-3.906-3.905-10.236-3.905-14.143,0c-3.905,3.905-3.905,10.237,0,14.143L23.324,546.409z"/>
</svg>
