<?xml version="1.0" encoding="iso-8859-1"?>
<!-- Generator: Adobe Illustrator 19.0.1, SVG Export Plug-In . SVG Version: 6.00 Build 0)  -->
<svg version="1.1" id="Capa_1" xmlns="http://www.w3.org/2000/svg" xmlns:xlink="http://www.w3.org/1999/xlink" x="0px" y="0px"
	 viewBox="27.8 141 358.4 512" style="enable-background:new 27.8 141 358.4 512;" xml:space="preserve">
<path d="M224.067,533.533h-153.6c-23.526,0-42.667-19.14-42.667-42.667v-307.2C27.8,160.14,46.94,141,70.467,141h170.667
	c23.526,0,42.667,19.14,42.667,42.667v247.467h-17.067V183.667c0-14.114-11.486-25.6-25.6-25.6H70.467
	c-14.114,0-25.6,11.486-25.6,25.6v307.2c0,14.114,11.486,25.6,25.6,25.6h153.6V533.533z"/>
<path d="M377.667,653H244.291c-53.495,0-97.024-43.529-97.024-97.024V525h17.067v30.976c0,44.092,35.874,79.957,79.957,79.957
	h124.843V426.952c0.009-17.382-5.965-34.432-16.828-48l-83.712-104.61l13.338-10.667l83.712,104.619
	c13.269,16.597,20.565,37.436,20.557,58.667v217.506C386.2,649.186,382.386,653,377.667,653z"/>
<path d="M289.338,609.796c-44.16-16.538-73.813-59.315-73.805-106.47v-26.402l-73.498-86.784
	c-13.303-15.855-12.322-38.81,2.261-53.436c0.085-0.094,0.768-0.742,0.862-0.836c7.578-7.159,17.502-11.042,28.16-10.684
	c10.547,0.299,20.352,4.693,27.597,12.365l114.697,121.865l-12.433,11.699L188.5,349.256c-4.105-4.352-9.677-6.844-15.667-7.014
	c-6.007-0.034-11.691,2.005-16.043,6.118c-8.704,8.713-9.259,21.777-1.707,30.771l75.494,89.148
	c1.306,1.545,2.022,3.507,2.022,5.521v29.525c-0.009,40.073,25.199,76.433,62.729,90.487L289.338,609.796z"/>
<rect x="215.533" y="158.067" width="17.067" height="213.333"/>
<rect x="172.867" y="422.6" width="17.067" height="102.4"/>
<rect x="172.867" y="149.533" width="17.067" height="187.733"/>
<rect x="70.467" y="183.667" width="17.067" height="110.933"/>
<rect x="113.133" y="183.667" width="17.067" height="68.267"/>
<path d="M130.2,490.867H79c-4.71,0-8.533-3.814-8.533-8.533v-51.2c0-4.719,3.823-8.533,8.533-8.533h51.2
	c4.71,0,8.533,3.814,8.533,8.533v51.2C138.733,487.052,134.91,490.867,130.2,490.867z M87.533,473.8h34.133v-34.133H87.533V473.8z"
	/>
</svg>
