<?xml version="1.0" encoding="iso-8859-1"?>
<!-- Generator: Adobe Illustrator 19.0.1, SVG Export Plug-In . SVG Version: 6.00 Build 0)  -->
<svg version="1.1" id="&#x421;&#x43B;&#x43E;&#x439;_1"
	 xmlns="http://www.w3.org/2000/svg" xmlns:xlink="http://www.w3.org/1999/xlink" x="0px" y="0px" viewBox="0 0 182.855 236.191"
	 style="enable-background:new 0 0 182.855 236.191;" xml:space="preserve">
<g>
	<path d="M0,0v236.191h182.855V0H0z M172.172,7.621l-14.285,22.855h-50.141c-0.141-0.293-0.246-0.617-0.207-0.961
		c0.41-3.75-1.371-7.269-4.648-9.168c-3.297-1.91-7.27-1.711-10.36,0.535c-0.652,0.469-1.562,0.465-2.207,0
		c-3.09-2.25-7.058-2.449-10.359-0.535c-3.277,1.899-5.059,5.414-4.649,9.172c0.039,0.344-0.058,0.664-0.203,0.957H24.969
		L10.68,7.621H172.172z M133.332,110.476v34.285h-11.426v7.618h11.426V160H49.523v-7.621h11.43v-7.618h-11.43v-34.285h11.43v-7.621
		h-11.43v-7.617h83.809v7.617h-11.43v7.621H133.332z M75.398,52.941c0.043,0.293,0.125,0.57,0.2,0.855
		c0.066,0.27,0.093,0.551,0.187,0.817c-6.887,4.969-11.023,12.906-11.023,21.578v11.426h-7.621V76.191
		c0-11.539,5.808-22.238,15.328-28.566c0.543,0.398,1.133,0.734,1.761,1.011c0.739,0.325,1.176,1.063,1.086,1.848
		C75.227,51.324,75.277,52.14,75.398,52.941L75.398,52.941z M82.895,28.691c-0.11-1.012,0.515-1.531,0.894-1.754
		c0.184-0.105,0.535-0.266,0.965-0.266c0.328,0,0.707,0.09,1.09,0.375c3.34,2.434,7.832,2.434,11.176,0
		c0.89-0.648,1.73-0.292,2.05-0.105c0.387,0.223,1.008,0.746,0.895,1.75c-0.453,4.109,1.805,7.996,5.605,9.66
		c0.992,0.434,1.098,1.301,1.098,1.653c0,0.156-0.035,0.421-0.145,0.699l-0.113,0.199c-0.199,0.352-0.469,0.59-0.84,0.754
		c-3.804,1.668-6.054,5.547-5.605,9.652c0.027,0.231,0.004,0.438-0.035,0.621c-0.075,0.278-0.25,0.606-0.629,0.918l-0.321,0.258
		c-0.363,0.191-1.132,0.457-1.968-0.144c-3.34-2.434-7.832-2.434-11.172,0c-0.832,0.601-1.606,0.335-1.965,0.144l-0.32-0.258
		c-0.383-0.312-0.555-0.64-0.629-0.918c-0.043-0.183-0.063-0.386-0.039-0.617c0.453-4.109-1.797-7.992-5.606-9.656
		c-0.004,0-0.004-0.004-0.008-0.004c-0.363-0.164-0.628-0.398-0.828-0.75l-0.113-0.199c-0.105-0.282-0.141-0.543-0.141-0.699
		c0-0.356,0.106-1.219,1.102-1.657C81.094,36.679,83.344,32.796,82.895,28.691L82.895,28.691z M110.477,76.191v11.43H95.238V60.468
		c2.086,0.68,4.305,0.539,6.387-0.3C107.113,63.648,110.477,69.613,110.477,76.191L110.477,76.191z M81.215,60.179
		c1.148,0.469,2.336,0.782,3.531,0.782c0.973,0,1.934-0.153,2.867-0.457v27.117H72.375v-11.43
		C72.383,69.621,75.738,63.66,81.215,60.179L81.215,60.179z M125.715,87.621h-7.621v-11.43c0-8.672-4.137-16.613-11.024-21.582
		c0.09-0.262,0.121-0.543,0.192-0.816c0.07-0.286,0.152-0.559,0.199-0.852c0.121-0.801,0.168-1.621,0.078-2.457
		c-0.086-0.781,0.352-1.52,1.086-1.844c0.008-0.004,0.016-0.011,0.023-0.015c0.622-0.274,1.204-0.606,1.747-0.996
		c9.519,6.324,15.32,17.023,15.32,28.562V87.621z M7.621,17.093l13.125,21h48.102c-0.125,0.625-0.278,1.246-0.278,1.911
		c0,0.375,0.118,0.714,0.157,1.078c-11.879,7.695-19.204,20.836-19.204,35.109v11.43h-7.617v80h45.715v30.476H20.746l-13.125,21
		V17.093z M10.688,228.57l14.281-22.856h132.922l14.285,22.856H10.688z M175.238,219.097l-13.129-21.004H95.238v-30.472h45.715v-80
		h-7.621v-11.43c0-14.277-7.32-27.414-19.203-35.109c0.043-0.364,0.156-0.707,0.156-1.078c0-0.665-0.148-1.286-0.273-1.911h48.097
		l13.129-21V219.097z M175.238,219.097"/>
	<path d="M91.43,102.855c-8.407,0-15.239,6.836-15.239,15.238c0,3.68,1.371,7.243,3.809,10.02v24.266h22.855v-24.266
		c2.442-2.777,3.813-6.34,3.813-10.02C106.668,109.691,99.832,102.855,91.43,102.855L91.43,102.855z M96.496,123.73l-1.258,1.133
		v19.898h-7.617v-19.898l-1.258-1.133c-1.644-1.484-2.554-3.488-2.554-5.637c0-4.199,3.418-7.617,7.621-7.617
		s7.617,3.418,7.617,7.617C99.047,120.242,98.141,122.246,96.496,123.73L96.496,123.73z M96.496,123.73"/>
</g>
</svg>
